<svg xmlns="http://www.w3.org/2000/svg" width="36" height="36" viewBox="0 0 36 36"><defs><style>.a{fill:none;}.b{fill:#6c1aeb;}</style></defs><rect class="a" width="36" height="36" rx="5"/><path class="b" d="M-6810.711-181.26a15.787,15.787,0,0,1-1.239-3.862c-.77.18-1.3.386-2.162.538-4.247.751-5.507-.209-6.837-.238a9.745,9.745,0,0,1-1.331,3.172c-1.1.994-5.234-.264-6.837-1.154a3.1,3.1,0,0,1-1.884-3.2v-.466c0-.866,1.011-2.638,2.679-10.406.614-2.453.3-4.061,1.54-5.026a7.835,7.835,0,0,1,4.483-1.968c1.256,0,2.835-.165,3.449.751-.72.826-1.423.255-3.933.866-1.044.252-3.692.878-3.991,1.86-.074.242-.137.739-.188,1.01-.4,2.03-2.71,12.885-2.587,13.711.343,2.337,4.534,3.252,6.2,3.252.659,0,.751-.562,1.1-1.3a5.258,5.258,0,0,0,.548-1.553c-.555-.266-2.143-.816-2.39-1.3-.365-.715.641-.442,1.322-.182,3.016,1.154,7.524,1.111,10.658.425a16.989,16.989,0,0,0,1.642-.463c.345-.12,1.216-.61,1.216.171,0,.59-1.492.958-1.949,1.2a19.811,19.811,0,0,1,1.2,3.449,6.25,6.25,0,0,0,4.7-.849c.55-.278.974-.466,1.479-.77.235-.142.4-.237.648-.4.425-.281.144-.238.67-.379,0-2.714-.941-6.24-1.511-8.99-.293-1.418-.619-2.83-.979-4.27-.938-4.438-2.1-4.447-2.889-4.608a28.185,28.185,0,0,0-6.17-.281v0c-.2-.933.278-.838,1.3-1.1,2.463-.645,5.751-.5,7.344,1.611.907,1.2.917,3.439,1.4,5.133,2.088,7.236,2.671,10.338,2.671,11.6,0,2.062-.315,1.936-1.694,2.769a14.771,14.771,0,0,1-3.61,1.488,9.216,9.216,0,0,1-2.211.309A2.6,2.6,0,0,1-6810.711-181.26Zm-11.9-8.344a2.545,2.545,0,0,1-.751-1.97v0c0-3.158,5.441-4.1,5.441-.453,0,2.192-1.41,3.289-2.789,3.288A2.49,2.49,0,0,1-6822.61-189.6Zm1.819-.609c2.023,0,2.273-3.175.454-3.175A1.6,1.6,0,0,0-6820.791-190.213Zm5.813-1.21c0-1.241,1.371-3.175,2.873-3.175a2.831,2.831,0,0,1,2.69,2.986c-.18,2.036-1.4,2.861-2.652,2.861A2.833,2.833,0,0,1-6814.978-191.423Zm2.873,1.21a1.1,1.1,0,0,0,1.068-.607,3.27,3.27,0,0,0,.266-.994,1.441,1.441,0,0,0-1.334-1.725C-6814.018-193.539-6814.546-190.213-6812.1-190.213Zm1.915-9.124a27.91,27.91,0,0,0-6.064-.864,31.39,31.39,0,0,0-5.923.5,14.245,14.245,0,0,1-1.884.343c-2.34-.417,6.525-4.114,14.574-.842,1.312.533,1.466.37,1.533,1.167a1.078,1.078,0,0,1-.55.147A8.389,8.389,0,0,1-6810.189-199.337Z" transform="translate(6834 210.334)"/></svg>