<svg xmlns="http://www.w3.org/2000/svg" width="36" height="36" viewBox="0 0 36 36"><defs><style>.a{fill:none;}.b{fill:#6c1aeb;}</style></defs><rect class="a" width="36" height="36" rx="5"/><path class="b" d="M25.91,19.488a45.617,45.617,0,0,1-.281-10.473c0-.232.187-.52.036-.672a.841.841,0,0,0-1.189,0c-.152.152.082.362.082.594a32.129,32.129,0,0,1-.328,11.008.836.836,0,0,0,.244.592l.788.761a16.61,16.61,0,0,1-6.982,0l.788-.761a.85.85,0,0,0,.181-.272.835.835,0,0,0,.063-.32V8.936a.828.828,0,0,0-.249-.584.842.842,0,0,0-1.365.265c-1.183,4.441-2.557,8.808-5.286,12.642C10.09,17.237,8.4,12.477,5,6.195c-.788-1.46-2.034-2.736-3.24-4.822A8.613,8.613,0,0,1,8,1.745,50.091,50.091,0,0,1,13.321,12.67a.834.834,0,0,0,.751.462h.03a.844.844,0,0,0,.749-.53A28.252,28.252,0,0,1,19.041,2.074C20.421.9,24.168.966,26.083,1.7c-.694.671-2.568,2.465-1.609,3.426a.841.841,0,0,0,1.435-.595c0-.885-.08-.676.548-1.3l1.409-1.4a.87.87,0,0,0,.18-.272.844.844,0,0,0,.062-.319.865.865,0,0,0-.015-.166.9.9,0,0,0-.05-.16A.844.844,0,0,0,27.27.391a23.668,23.668,0,0,0-8.8,0,.842.842,0,0,0-.783.529,52.444,52.444,0,0,1-3.7,9.261A61.416,61.416,0,0,1,9.325.863.843.843,0,0,0,9.015.52c-.957-.6-7.678-.567-8.588,0a.85.85,0,0,0-.306.33.84.84,0,0,0-.059.173.882.882,0,0,0,.02.437.839.839,0,0,0,.112.226l3.25,4.365.433.926a28.878,28.878,0,0,1,0,9.744A7.251,7.251,0,0,1,.19,21.637a.849.849,0,0,0-.134.245.839.839,0,0,0-.045.276.849.849,0,0,0,.025.209.914.914,0,0,0,.078.2.838.838,0,0,0,.726.415,19.561,19.561,0,0,1,7.728,0,.82.82,0,0,0,.439-.125.842.842,0,0,0,.309-.338.832.832,0,0,0,.068-.185.893.893,0,0,0,.022-.2.86.86,0,0,0-.041-.265.849.849,0,0,0-.125-.239,7.848,7.848,0,0,1-3.683-4.91,39.763,39.763,0,0,1-.041-7.232,63.576,63.576,0,0,1,5.587,13,.835.835,0,0,0,.763.487h1.1a.843.843,0,0,0,.773-.522c1.241-3.1,3.108-7.678,4.263-10.863.218,2.352.392,5.912-.375,8l-1.957,1.946a.834.834,0,0,0-.242.591.858.858,0,0,0,.015.166.913.913,0,0,0,.049.16v0a.846.846,0,0,0,.773.523,43.347,43.347,0,0,1,11,0,.843.843,0,0,0,.773-.522v0a.775.775,0,0,0,.048-.159.792.792,0,0,0,.017-.167.834.834,0,0,0-.242-.591l-1.957-1.946v-.107Zm-24,2.227c.866-.549,2.564-1.824,2.771-2.758.263.906,1.925,2.174,2.737,2.749A26.319,26.319,0,0,0,1.909,21.715Z" transform="translate(3.94 6.522)"/></svg>