<svg xmlns="http://www.w3.org/2000/svg" width="36" height="36" viewBox="0 0 36 36"><defs><style>.a{fill:none;}.b{fill:#6c1aeb;fill-rule:evenodd;}</style></defs><rect class="a" width="36" height="36" rx="5"/><path class="b" d="M19.974,22.97a3.383,3.383,0,0,1-1.662-.48l-.094-.054-.088-.064L12.667,18.25c-1.005-.759-1.707-1.571-1.812-.365l-.19,2.23a1.487,1.487,0,0,1-2.852.26,7.932,7.932,0,0,1-1.289-3.967c0-.871,1.509-1.41,1.488.1-.013.984-.161,2.718.882,3.275.531.284.206-.646.354-2.38v0c.005-1.793,1.71-1.731,3.037-.807l5.017,3.7,1.9,1.4C22.059,23.1,24.469,4,24.581,2.021,24.648.847,23.5,1,22.788,1.332A170.334,170.334,0,0,1,2.163,9.418c-3.581,2.557,3.3,2.94,3.624,3.157,2.335.866,8.652-3.632,9.981-4.771,1.228-1.051,2.091-1,1.375,1.589a10.372,10.372,0,0,1-4.3,4.648h0l-.013.011h0a.81.81,0,0,1-.566.228.819.819,0,0,1-.592-1.386,10.026,10.026,0,0,0,5.173-4.479c.174-.332-.324-.641-.844-.1a19.1,19.1,0,0,1-3.94,3.09,34.514,34.514,0,0,1-4.717,2.487,2.51,2.51,0,0,1-2.061.247c-.005,0-.011,0-.016,0L1.925,13.066A2.47,2.47,0,0,1-.045,10.86c-.027-.638.206-1.82,2.088-2.592l.011,0,.011,0a144.373,144.373,0,0,0,20.311-8A2.936,2.936,0,0,1,23.568,0c1.4,0,2.042,1.319,1.991,2.632-.2,5.192-2.812,21.115-5.6,20.341Z" transform="translate(5.242 6.5)"/></svg>