<svg xmlns="http://www.w3.org/2000/svg" width="36" height="36" viewBox="0 0 36 36"><defs><style>.a{fill:none;}.b{fill:#6c1aeb;}</style></defs><rect class="a" width="36" height="36" rx="5"/><path class="b" d="M-7186.193,146a15.656,15.656,0,0,1-8.6-2.577.456.456,0,0,1-.179-.54.456.456,0,0,1,.484-.3,10.062,10.062,0,0,0,1.246.074,10.571,10.571,0,0,0,6.614-1.791,5.9,5.9,0,0,1-5.379-3.871.456.456,0,0,1,.3-.572.453.453,0,0,1,.572.3,4.338,4.338,0,0,0,4.9,3.422.459.459,0,0,1,.426.309c.062.184-.242.511-.394.63a11.45,11.45,0,0,1-1.928,1.253,11.075,11.075,0,0,1-4.583,1.224,15.091,15.091,0,0,0,6.479,1.524c8.079-.193,15.248-7.454,14.87-15.276,0-1.36,2.041-2.555,2.974-3.982a.456.456,0,0,1,.632-.134.459.459,0,0,1,.133.634,12.052,12.052,0,0,1-2.147,2.459c-.3.267-.347.323-.347,1.278A15.791,15.791,0,0,1-7186.192,146Zm-2.85-9.139c-.74-.107-4.89-1.668-4.89-5.562v0a.488.488,0,0,1,.458-.491.428.428,0,0,1,.457.423v.069c0,2.43,1.894,3.825,4.212,4.3.941.189.943,1.28-.025,1.28A1.494,1.494,0,0,1-7189.043,136.859Zm-1.466-3.873h0c-1.858-.59-4.424-5.305-2.689-8.586a2.164,2.164,0,0,1,.446-.58c.233-.179.673.137.9.421,2.474,3.091,5.789,6.4,10.047,5.516,1.136.056.894,1.863-.181,1.84-3.284-.022-7.49-2.4-10.666-6.892-1.212,1.481.173,6.95,2.952,7.355.479.3.044,1.034-.48,1.034A.585.585,0,0,1-7190.509,132.986Zm8.052-4.666,0,.005c.221-3.137,3.206-5.325,6.284-5.325a5.866,5.866,0,0,1,4.129,1.715,10.215,10.215,0,0,0,3.066-1.242.457.457,0,0,1,.518.033.46.46,0,0,1,.155.495,6.015,6.015,0,0,1-2.591,3.335.456.456,0,0,1-.63-.152.457.457,0,0,1,.151-.63,5.073,5.073,0,0,0,1.667-1.667,11.144,11.144,0,0,1-2.4.773.456.456,0,0,1-.428-.141,5.31,5.31,0,0,0-3.68-1.864,5.249,5.249,0,0,0-4.928,4.995.584.584,0,0,1-.638.538C-7182.209,129.188-7182.66,128.872-7182.458,128.32Z" transform="translate(7199.272 -116.5)"/></svg>