<svg xmlns="http://www.w3.org/2000/svg" xmlns:xlink="http://www.w3.org/1999/xlink" width="130" height="130" viewBox="0 0 130 130"><defs><style>.a{fill:#fff;stroke:rgba(236,236,236,0.5);stroke-width:5px;}.b{fill:#fe9800;}.c{stroke:none;}.d{fill:none;}.e{filter:url(#a);}</style><filter id="a" x="0" y="0" width="130" height="130" filterUnits="userSpaceOnUse"><feOffset dy="5" input="SourceAlpha"/><feGaussianBlur stdDeviation="5" result="b"/><feFlood flood-color="#042837" flood-opacity="0.169"/><feComposite operator="in" in2="b"/><feComposite in="SourceGraphic"/></filter></defs><g transform="translate(-880 -77)"><g class="e" transform="matrix(1, 0, 0, 1, 880, 77)"><g class="a" transform="translate(15 10)"><circle class="c" cx="50" cy="50" r="50"/><circle class="d" cx="50" cy="50" r="47.5"/></g></g><path class="b" d="M-7036.9-42.213h0l-7.152-7.151h0l-7.152-7.149,8.082-8.081,7.148,7.151h0l7.15,7.151,6.686-6.684,7.615-7.616,8.082,8.081-8.08,8.081h0l-7.15,7.151-7.15,7.15Zm28.6-28.6,8.08-8.081,8.082,8.081-8.082,8.081Zm-28.6,0,8.08-8.081,8.08,8.081-8.08,8.081Zm-28.6,0,8.082-8.081,8.082,8.081-8.082,8.081Zm43.369-13.837-6.686-6.684-6.221,6.219h0l-8.082,8.081-8.082-8.081,8.082-8.081h0l6.221-6.221h0l8.08-8.081,8.082,8.081h0l6.221,6.219,8.082,8.081-8.082,8.081Z" transform="translate(7973.629 207.629)"/></g></svg>