<svg xmlns="http://www.w3.org/2000/svg" width="36" height="36" viewBox="0 0 36 36"><defs><style>.a{fill:none;opacity:0;}.b{fill:#0d90ff;fill-rule:evenodd;}</style></defs><rect class="a" width="36" height="36" rx="5"/><path class="b" d="M20.548,23.953a14.663,14.663,0,0,1,4.232.658c.5.154.441.058.441.7H15.115a9.782,9.782,0,0,1,2.4-.973,12.3,12.3,0,0,1,3.037-.386Zm-17.93.924c0-.183.218-.2.4-.253A12.654,12.654,0,0,1,12.165,25a1.229,1.229,0,0,1,.559.31H2.618v-.435Zm10.65-1.25.016.016S13.262,23.633,13.267,23.627Zm-10.65.217V9.065a9.994,9.994,0,0,1,1.847-.6l0,9.728c-.007,1.065.659.409,3.462,1.809a12.8,12.8,0,0,1,3.4,2.576,10.477,10.477,0,0,1,1.344,1.7c-.023-.005-1.389-.572-2.161-.772a14.268,14.268,0,0,0-5.966-.129c-.368.075-.629.13-.979.217l-.946.25Zm2.717-21.3a8.281,8.281,0,0,1,1.847.6c0,4.417.025,8.842,0,13.258-.007,1.237.2.655,1.918,1.4a6.368,6.368,0,0,1,1.514.931c.094.077.13.129.225.21s.134.089.244.191a8.24,8.24,0,0,1,1.37,1.944,11.827,11.827,0,0,1,.473,1.157,6.632,6.632,0,0,1,.341,1.343l-1.1-1.343a16.364,16.364,0,0,0-2.244-1.994l-.983-.647a12.428,12.428,0,0,0-3.6-1.45V2.545ZM8.051.915a9.047,9.047,0,0,1,2.181,1.024C12.246,3.328,13.2,5.76,13.476,8.367c.062.578.007,11.954.007,12.87a.537.537,0,0,1-.109-.163l-.323-.655a7.548,7.548,0,0,0-3.143-3.159,8.152,8.152,0,0,0-1.858-.7V.915ZM23.591,21.29c-.265.061-1.676.113-2.767.331A15.146,15.146,0,0,0,15.278,23.9l-.923.652V10.7c0-.409-.137-1.346.091-1.593a15.78,15.78,0,0,1,2.031-1.447c.369-.221.744-.408,1.137-.6A14.182,14.182,0,0,1,23.591,5.7V9.772a.458.458,0,0,0,.435.489c.554,0,.435-.894.435-1.467a3.354,3.354,0,0,1,.76.272V23.845l-.946-.25c-.35-.087-.61-.141-.979-.217a15.214,15.214,0,0,0-4.214-.184c-.271.023-.562.1-.816.107.072-.062,0-.021.132-.085l.553-.207a14.463,14.463,0,0,1,3.172-.741c.267-.03.606-.042.892-.085.614-.092,1.444.178,1.444-.512V12.379a.438.438,0,0,0-.81-.266.96.96,0,0,0-.06.537v8.64ZM7.182,2.219a11.161,11.161,0,0,0-2.336-.651c-.453,0-.381.723-.381,1.195V7.6a11.542,11.542,0,0,0-2.238.7.624.624,0,0,0-.479.553C1.2,8.848.01,8.729.01,9.771V22.377a.415.415,0,0,0,.817-.052c.055-.547,0-9.626,0-11.032,0-.29,0-.58,0-.869,0-.819-.172-.706.924-.706v15.92a.443.443,0,0,0,.435.489H25.657a.443.443,0,0,0,.435-.489V9.717c.618,0,.923-.088.923.163v16.9A.208.208,0,0,1,26.8,27H15.333a.422.422,0,0,1-.34-.148.862.862,0,0,0-.292-.2,1.68,1.68,0,0,0-1.854.2.419.419,0,0,1-.34.148H1.043c-.321,0-.217-.588-.217-1.087V24.549c-.133-.089-.219-.212-.428-.2-.146.006-.386.129-.386.311v2.336a.953.953,0,0,0,.815.815H12.89c.549,0,.244-.489,1.141-.489.474,0,.474.489.924.489H27.017a.953.953,0,0,0,.815-.815V9.77c0-1.043-1.2-.923-1.739-.923-.1-.443-.266-.476-.675-.629-.3-.113-.7-.226-.956-.349V6.131c0-1.279.069-1.3-.869-1.3A15.563,15.563,0,0,0,16.2,6.834a12.411,12.411,0,0,0-1.633,1.083c-.145.118-.074.118-.265.169a12.8,12.8,0,0,0-.7-3,8.092,8.092,0,0,0-3.29-4.1,7.588,7.588,0,0,0-2.694-1c-.436,0-.438.427-.436.868s0,.906,0,1.359Z" transform="translate(4.079 4.1)"/></svg>