<svg xmlns="http://www.w3.org/2000/svg" width="36" height="36" viewBox="0 0 36 36"><defs><style>.a{fill:none;}.b{fill:#c5c9f6;}.b,.c{fill-rule:evenodd;}.c,.d{fill:#a7aff1;}.e{fill:#fff;}</style></defs><rect class="a" width="36" height="36" rx="5"/><g transform="translate(3.649 3.056)"><g transform="translate(0.012 0.01)"><path class="b" d="M578.32,11.228c-.491-.072-4.877-2.237-4.95-2.278-.517-.288-1.053-.631-.769-1.33,1.048-2.554,5.6-7.767,8.589-7.606.616.033-.119,1.31.457,1.763l-3.327,9.451Z" transform="translate(-556.52 -0.01)"/><path class="c" d="M779.94,36.028c.4.3,4.7,1.608,4.781,1.632.568.168,1.187.312,1.49-.38,1.093-2.535.763-9.662-1.439-11.683-.454-.418-.778,1.075-1.5.98l-3.327,9.451Zm4.259-7.492a1.6,1.6,0,1,1-1.556,1.633,1.6,1.6,0,0,1,1.556-1.633Z" transform="translate(-758.14 -24.81)"/><path class="d" d="M323.544,406.926a26.808,26.808,0,0,0,8.393-5.258,18.134,18.134,0,0,0,4.461-6.7l-.98-.377a17.135,17.135,0,0,1-4.209,6.318,25.745,25.745,0,0,1-8.069,5.045l.4.972Z" transform="translate(-314.108 -383.561)"/><path class="d" d="M532.559,384.528a.527.527,0,0,0,.73-.759,27.094,27.094,0,0,0-4.349-3.444,24.833,24.833,0,0,0-5.726-2.645.526.526,0,0,0-.32,1,23.783,23.783,0,0,1,5.485,2.534,26.066,26.066,0,0,1,4.179,3.312Z" transform="translate(-507.924 -367.1)"/><path class="d" d="M486.957,487.636a.527.527,0,0,0,.9-.553,21.83,21.83,0,0,0-3.3-4.222,13.636,13.636,0,0,0-4.521-2.958.526.526,0,0,0-.385.979,12.6,12.6,0,0,1,4.175,2.735,20.84,20.84,0,0,1,3.132,4.02Z" transform="translate(-465.919 -466.454)"/><path class="d" d="M436.7,582.414a.525.525,0,1,0,1.015-.27,13.456,13.456,0,0,0-1.377-3.59,9.475,9.475,0,0,0-3.416-3.3.526.526,0,1,0-.541.9,8.453,8.453,0,0,1,3.052,2.937,12.548,12.548,0,0,1,1.266,3.321Z" transform="translate(-420.05 -559.101)"/><path class="d" d="M361.05,673.412a.526.526,0,1,0,1.045-.117l-.036-.328c-.191-1.763-.382-3.529-2.434-5.186a.526.526,0,0,0-.663.817c1.716,1.385,1.883,2.937,2.051,4.486l.036.328Z" transform="translate(-348.741 -649.002)"/><path class="c" d="M85.6,816.22l5.11-1.48c.742,2.144-1.284,3.574-2.511,5.083-1.686,2.339-5.428,2.823-4.465.463a9.876,9.876,0,0,0,1.866-4.067Z" transform="translate(-81.237 -791.967)"/><circle class="e" cx="1.595" cy="1.595" r="1.595" transform="translate(24.464 3.763) rotate(-1.369)"/><path class="b" d="M4.37,699.694l5.11-1.48c-.493-2.215-2.96-2.336-4.8-2.977-2.663-1.105-6.1.446-4.044,1.949a9.964,9.964,0,0,1,3.731,2.507Z" transform="translate(-0.012 -675.442)"/></g></g></svg>