<svg xmlns="http://www.w3.org/2000/svg" width="204.484" height="49.11" viewBox="0 0 204.484 49.11"><defs><style>.a{stroke:rgba(0,0,0,0);stroke-miterlimit:10;}</style></defs><g transform="translate(0.563 0.52)"><path class="a" d="M-7955.321,49.917a21.67,21.67,0,0,1-13.486-27.48A21.91,21.91,0,0,1-7957.545,9.6l.01-.04L-7955.9,4c.1-.344,1.291-1.951,2.539-.456l3.337,3.988a21.059,21.059,0,0,1,8.5,1.01l.158.052,4.326-3.105c.292-.21,2.217-.742,2.281,1.2l.192,5.746a21.4,21.4,0,0,1,5.06,6.239,2,2,0,0,1-.788,2.691,1.933,1.933,0,0,1-2.631-.738.372.372,0,0,1-.02-.036,17.37,17.37,0,0,0-9.832-8.292,17.419,17.419,0,0,0-14.284,1.5l4.046,16.873,2.146-6.443c1.031-3.093,2.563-3.694,3.666-3.652s2.579.756,3.317,3.916l2.2,9.356c.07.3.14.564.206.8l1.307-3.924c.962-2.891,2.9-4.82,5.294-5.286a6.142,6.142,0,0,1,5.895,2.233c1.785,2.181,2.127,5.218.942,8.346l-.016.048-.016.046a21.819,21.819,0,0,1-20.557,14.894A21.1,21.1,0,0,1-7955.321,49.917Zm-9.782-26.243a17.73,17.73,0,0,0,11.033,22.484,17.732,17.732,0,0,0,22.316-11.373c.006-.016.014-.026.02-.044s.008-.032.014-.046a4.447,4.447,0,0,0-.292-4.482h0a2.283,2.283,0,0,0-2.167-.884c-.974.19-1.789,1.124-2.291,2.631l-1.5,4.516c-.727,2.177-2.1,3.443-3.687,3.383-2.679-.1-3.52-3.7-3.838-5.056l-1.979-8.418-2.845,8.536c-.7,1.947-1.732,2.909-3.061,2.861-.88-.034-2.047-.526-2.619-2.7l-4.486-18.71A17.928,17.928,0,0,0-7965.1,23.674Zm189.233,5.186a4.807,4.807,0,0,1,4.882-4.92,4.309,4.309,0,0,1,4.466,4.408V28.4a1.285,1.285,0,0,1-1.407,1.313h-5.358a2.488,2.488,0,0,0,2.641,1.861,3.718,3.718,0,0,0,1.957-.55,1.043,1.043,0,0,1,.552-.172,1.015,1.015,0,0,1,1.044,1.026,1.174,1.174,0,0,1-.646,1.026,5.336,5.336,0,0,1-2.983.874A4.908,4.908,0,0,1-7775.87,28.86Zm2.583-.95h4.275a1.9,1.9,0,0,0-2.033-1.9A2.288,2.288,0,0,0-7773.286,27.91Zm-12.882.932a4.909,4.909,0,0,1,5.034-4.9,4.6,4.6,0,0,1,3.8,1.861,1.226,1.226,0,0,1,.228.684,1.144,1.144,0,0,1-1.141,1.14,1.04,1.04,0,0,1-.874-.4,2.516,2.516,0,0,0-1.977-.95,2.421,2.421,0,0,0-2.469,2.565,2.426,2.426,0,0,0,2.469,2.583,2.6,2.6,0,0,0,1.977-.95,1.054,1.054,0,0,1,.874-.4,1.144,1.144,0,0,1,1.141,1.14,1.09,1.09,0,0,1-.21.646,4.41,4.41,0,0,1-3.82,1.919A4.94,4.94,0,0,1-7786.168,28.842Zm-10.413,2.127c0-1.691,1.351-2.735,3.554-2.735h2.357v-.418a1.554,1.554,0,0,0-1.767-1.653,2.68,2.68,0,0,0-1.807.7,1.185,1.185,0,0,1-.758.3,1.067,1.067,0,0,1-1.1-1.044,1.435,1.435,0,0,1,.532-1.026,5.013,5.013,0,0,1,3.4-1.158c2.583,0,4.066,1.463,4.066,4.028V32.49a1.219,1.219,0,0,1-1.237,1.273,1.232,1.232,0,0,1-1.234-.988,3.922,3.922,0,0,1-2.755,1.008C-7795.268,33.783-7796.581,32.642-7796.581,30.969Zm2.585-.094c0,.626.512,1.026,1.349,1.026a1.882,1.882,0,0,0,1.977-1.863v-.114h-2.015C-7793.539,29.925-7794,30.247-7794,30.875Zm-6.251,2.241-2.813-3.99h-2.185V32.47a1.27,1.27,0,0,1-1.272,1.313,1.276,1.276,0,0,1-1.292-1.313V22.306a1.265,1.265,0,0,1,1.313-1.293h3.419c2.679,0,4.5,1.635,4.5,4.03a3.876,3.876,0,0,1-1.957,3.457l2.261,3.135a1.8,1.8,0,0,1,.362.968,1.2,1.2,0,0,1-1.2,1.179A1.361,1.361,0,0,1-7800.246,33.116Zm-5-6.251h2.147a1.723,1.723,0,0,0,1.9-1.8,1.729,1.729,0,0,0-1.9-1.787h-2.147Zm-11.779,5.566a1.009,1.009,0,0,1-.362-.8,1.08,1.08,0,0,1,1.064-1.084,1.136,1.136,0,0,1,.74.286,3.139,3.139,0,0,0,2.053.836c.646,0,1.2-.248,1.2-.78,0-.436-.4-.608-.969-.854l-1.006-.418c-1.6-.646-2.565-1.387-2.565-2.869,0-1.8,1.462-2.831,3.458-2.831a4.615,4.615,0,0,1,2.963,1.008,1.059,1.059,0,0,1,.456.872,1.057,1.057,0,0,1-1.044,1.064,1.29,1.29,0,0,1-.684-.266,3.022,3.022,0,0,0-1.709-.57c-.608,0-1.008.21-1.008.666,0,.38.3.57.988.834l.913.38c1.69.684,2.641,1.407,2.641,2.869,0,1.939-1.615,3-3.668,3A4.907,4.907,0,0,1-7817.023,32.432Zm-4.6.038V28.062a1.7,1.7,0,0,0-1.749-1.823,1.737,1.737,0,0,0-1.787,1.823V32.47a1.259,1.259,0,0,1-1.272,1.313,1.274,1.274,0,0,1-1.291-1.313V25.231a1.253,1.253,0,0,1,1.272-1.291,1.22,1.22,0,0,1,1.2.968,3.884,3.884,0,0,1,2.641-.968c2.146,0,3.533,1.481,3.533,3.78v4.75a1.249,1.249,0,0,1-1.272,1.313A1.27,1.27,0,0,1-7821.621,32.47Zm-11.211,0V25.231a1.257,1.257,0,0,1,1.292-1.291,1.252,1.252,0,0,1,1.272,1.291V32.47a1.274,1.274,0,0,1-1.292,1.313A1.27,1.27,0,0,1-7832.832,32.47Zm-25.593-5.186a6.517,6.517,0,0,1,6.688-6.5,6.318,6.318,0,0,1,4.844,2.167,1.409,1.409,0,0,1,.4.95,1.185,1.185,0,0,1-1.2,1.158,1.311,1.311,0,0,1-.986-.494,3.863,3.863,0,0,0-3.06-1.407,3.949,3.949,0,0,0-4.047,4.144,3.927,3.927,0,0,0,4.047,4.1A3.877,3.877,0,0,0-7848.7,30a1.357,1.357,0,0,1,1.006-.494,1.167,1.167,0,0,1,1.179,1.158,1.462,1.462,0,0,1-.4.95,6.264,6.264,0,0,1-4.846,2.167A6.5,6.5,0,0,1-7858.425,27.284Zm-10.793,1.577a4.808,4.808,0,0,1,4.884-4.92,4.307,4.307,0,0,1,4.464,4.408V28.4a1.283,1.283,0,0,1-1.4,1.313h-5.358a2.488,2.488,0,0,0,2.641,1.861,3.718,3.718,0,0,0,1.957-.55,1.038,1.038,0,0,1,.55-.172,1.016,1.016,0,0,1,1.046,1.026,1.174,1.174,0,0,1-.646,1.026,5.336,5.336,0,0,1-2.983.874A4.908,4.908,0,0,1-7869.218,28.86Zm2.585-.95h4.276a1.9,1.9,0,0,0-2.035-1.9A2.284,2.284,0,0,0-7866.632,27.91Zm-7.069,4.56V28.082a1.63,1.63,0,0,0-1.67-1.825,1.665,1.665,0,0,0-1.729,1.767V32.47a1.261,1.261,0,0,1-1.272,1.313,1.274,1.274,0,0,1-1.292-1.313V28.082a1.642,1.642,0,0,0-1.673-1.825,1.672,1.672,0,0,0-1.729,1.825V32.47a1.26,1.26,0,0,1-1.273,1.313,1.274,1.274,0,0,1-1.292-1.313V25.231a1.253,1.253,0,0,1,1.272-1.291,1.219,1.219,0,0,1,1.2.95,3.623,3.623,0,0,1,2.545-.95,3.242,3.242,0,0,1,2.793,1.349,4.176,4.176,0,0,1,3.135-1.349c2.185,0,3.552,1.463,3.552,3.78v4.75a1.26,1.26,0,0,1-1.273,1.313A1.276,1.276,0,0,1-7873.7,32.47Zm-23.274-3.61a4.807,4.807,0,0,1,4.882-4.92,4.309,4.309,0,0,1,4.466,4.408V28.4a1.285,1.285,0,0,1-1.407,1.313h-5.358a2.489,2.489,0,0,0,2.641,1.861,3.73,3.73,0,0,0,1.959-.55,1.031,1.031,0,0,1,.55-.172,1.015,1.015,0,0,1,1.044,1.026,1.173,1.173,0,0,1-.646,1.026,5.334,5.334,0,0,1-2.983.874A4.908,4.908,0,0,1-7896.976,28.86Zm2.583-.95h4.276a1.9,1.9,0,0,0-2.033-1.9A2.288,2.288,0,0,0-7894.393,27.91Zm-7.219,4.56V26.277l-2.357,3.7a1.375,1.375,0,0,1-1.214.818,1.4,1.4,0,0,1-1.216-.818l-2.355-3.742V32.47a1.272,1.272,0,0,1-1.275,1.313,1.276,1.276,0,0,1-1.292-1.313V22.116a1.26,1.26,0,0,1,1.254-1.331c.552,0,.913.266,1.349.988l3.536,5.606,3.534-5.606c.456-.722.8-.988,1.349-.988a1.26,1.26,0,0,1,1.254,1.331V32.47a1.27,1.27,0,0,1-1.272,1.313A1.274,1.274,0,0,1-7901.611,32.47Zm56.7-3.628a4.907,4.907,0,0,1,5.034-4.9,4.947,4.947,0,0,1,5.054,4.9,4.968,4.968,0,0,1-5.072,4.92A4.918,4.918,0,0,1-7844.915,28.842Zm2.6.018a2.407,2.407,0,0,0,2.431,2.547,2.432,2.432,0,0,0,2.433-2.547,2.452,2.452,0,0,0-2.433-2.583A2.427,2.427,0,0,0-7842.312,28.86Zm9.158-8.131a1.579,1.579,0,0,1,1.615-1.559,1.587,1.587,0,0,1,1.6,1.559,1.583,1.583,0,0,1-1.6,1.539A1.575,1.575,0,0,1-7833.154,20.729Zm-110.2-2.771a1.98,1.98,0,0,1,1.915-2.035,1.978,1.978,0,0,1,1.915,2.035,1.981,1.981,0,0,1-1.915,2.037A1.978,1.978,0,0,1-7943.357,17.958Zm-10.3-1.655a2.585,2.585,0,0,1,2.583-2.583,2.583,2.583,0,0,1,2.583,2.583,2.583,2.583,0,0,1-2.583,2.583A2.585,2.585,0,0,1-7953.66,16.3Z" transform="translate(7969.943 -2.916)"/></g></svg>