<svg xmlns="http://www.w3.org/2000/svg" xmlns:xlink="http://www.w3.org/1999/xlink" width="130" height="130" viewBox="0 0 130 130"><defs><style>.a{fill:#fff;stroke:rgba(236,236,236,0.5);stroke-width:5px;}.b{fill:#0d90ff;}.c{stroke:none;}.d{fill:none;}.e{filter:url(#a);}</style><filter id="a" x="0" y="0" width="130" height="130" filterUnits="userSpaceOnUse"><feOffset dy="5" input="SourceAlpha"/><feGaussianBlur stdDeviation="5" result="b"/><feFlood flood-color="#042837" flood-opacity="0.169"/><feComposite operator="in" in2="b"/><feComposite in="SourceGraphic"/></filter></defs><g transform="translate(-704 -77)"><g class="e" transform="matrix(1, 0, 0, 1, 704, 77)"><g class="a" transform="translate(15 10)"><circle class="c" cx="50" cy="50" r="50"/><circle class="d" cx="50" cy="50" r="47.5"/></g></g><path class="b" d="M86.179,50.621a3.776,3.776,0,1,1,5.34,0A3.776,3.776,0,0,1,86.179,50.621ZM73.5,63.3a2.832,2.832,0,1,1,4,0A2.832,2.832,0,0,1,73.5,63.3Zm20.025-6.675a2.832,2.832,0,1,1,4,0A2.832,2.832,0,0,1,93.521,56.628ZM86.847,63.3a2.832,2.832,0,1,1,4,0A2.832,2.832,0,0,1,86.847,63.3Zm14.017-.668a1.888,1.888,0,1,1,2.67,0A1.889,1.889,0,0,1,100.863,62.635ZM94.189,69.31a1.888,1.888,0,1,1,2.67,0A1.887,1.887,0,0,1,94.189,69.31ZM79.5,57.3a3.776,3.776,0,1,1,5.34,0A3.776,3.776,0,0,1,79.5,57.3Zm0-13.35a3.776,3.776,0,1,1,5.34,0A3.776,3.776,0,0,1,79.5,43.946Zm-6.675,6.675a3.776,3.776,0,1,1,5.34,0A3.776,3.776,0,0,1,72.829,50.621Zm-13.412,0a3.776,3.776,0,1,1,5.34,0A3.776,3.776,0,0,1,59.417,50.621ZM46.735,63.3a2.832,2.832,0,1,1,4,0A2.832,2.832,0,0,1,46.735,63.3ZM66.76,56.628a2.832,2.832,0,1,1,4,0A2.832,2.832,0,0,1,66.76,56.628ZM60.085,63.3a2.832,2.832,0,1,1,4,0A2.832,2.832,0,0,1,60.085,63.3Zm-26.032-.668a1.888,1.888,0,1,1,2.67,0A1.888,1.888,0,0,1,34.053,62.635Zm6.675,6.675a1.888,1.888,0,1,1,2.67,0A1.888,1.888,0,0,1,40.728,69.31Zm26.7,0a1.888,1.888,0,1,1,2.67,0A1.888,1.888,0,0,1,67.427,69.31ZM40.06,56.628a2.832,2.832,0,1,1,4,0A2.832,2.832,0,0,1,40.06,56.628Zm12.682.668a3.776,3.776,0,1,1,5.34,0A3.776,3.776,0,0,1,52.743,57.3Zm0-13.35a3.776,3.776,0,1,1,5.34,0A3.776,3.776,0,0,1,52.743,43.946Zm-6.675,6.675a3.776,3.776,0,1,1,5.34,0A3.776,3.776,0,0,1,46.068,50.621Z" transform="translate(700.207 83.318)"/></g></svg>