<svg xmlns="http://www.w3.org/2000/svg" width="36" height="36" viewBox="0 0 36 36"><defs><style>.a{fill:#0d90ff;fill-rule:evenodd;}.b{fill:none;opacity:0;}</style></defs><path class="a" d="M1.552,15.833c.635,0,.7.71.8.92a2.593,2.593,0,0,1-.936-.272c-.461-.289-.015-.649.132-.649ZM13.976,3.315a.693.693,0,0,1,.869.455.673.673,0,1,1-1.269.442A.7.7,0,0,1,13.976,3.315Zm-2.514.22A.914.914,0,1,1,10.9,4.7a.913.913,0,0,1,.563-1.163Zm6.265,5.809c.021-.121.027-.253.038-.385a2.5,2.5,0,0,0-.138-1.117.785.785,0,0,0-.714-.513.535.535,0,0,0-.58.455A3.979,3.979,0,0,0,16.3,9.257a1.524,1.524,0,0,1-.142.968.846.846,0,0,1-.239.262l0,0a.75.75,0,0,1-.346.132.9.9,0,0,1-.572-.13,2.794,2.794,0,0,1-.762-.786A9.282,9.282,0,0,1,13.5,8.428a6,6,0,0,1-.316-.746c-.113-.327-.216-.614-.233-.142-.019.557.063,1.711.1,2.2.006.086.01.153.015.226a4.237,4.237,0,0,1-.025.651c-.128.892-.746.7-1.228.172a20.894,20.894,0,0,1-1.575-2.294C9.6,7.515,8.947,6.459,8.515,5.713a4.846,4.846,0,0,0,2.445,5.828c.408.2.4.277.89.222a8.667,8.667,0,0,1,1.085-.069c.478,0,2.007.126,2.187.063a4.705,4.705,0,0,0,2.6-2.413Zm-8.739-4.7c.306.614,1.186,2.044,2.03,3.343A22.433,22.433,0,0,1,12.141,10c-.019-.844-.408-3.186.471-3.607a.746.746,0,0,1,.777.034,4.989,4.989,0,0,1,.951,1.6A8.35,8.35,0,0,0,15,9.171c.14.2.446.721.381.2a4.833,4.833,0,0,1,.059-1.845A1.378,1.378,0,0,1,16.976,6.4a1.68,1.68,0,0,1,1.5,1.079,3.382,3.382,0,0,1,.209,1.546c-.01.159-.031.392-.057.543.819.191.618.274,1.355-.08l1.548-.637c.771-.3,2.855-1.225,3.379.006a3.69,3.69,0,0,1,.226,1.267,6.6,6.6,0,0,1-.031,1.38l-.216,1.28a6.332,6.332,0,0,1,1.529,2.151c.423,1.029.247,1.135,1.066,1.406.836.277,1.948.555,1.948,1.676v2.3a1.582,1.582,0,0,1-.335.874,5.443,5.443,0,0,1-2.4,1.049c-.744.207-.641.522-1.142,1.158-.2.253-.327.385-.536.614l-.574.576a8.178,8.178,0,0,1-1.336,1.022c-.731.486-.8.256-.888.836a16.8,16.8,0,0,1-.735,3.291,1.186,1.186,0,0,1-.733.417H18.572a1.054,1.054,0,0,1-.957-.71,3.4,3.4,0,0,1-.151-.71c-.237-1.385,0-1.041-1.309-.938a14.2,14.2,0,0,1-2.478.01l-.911-.065c-.021.247-.117.595-.157.821-.119.693-.205,1.594-1.165,1.594H9.374a1.073,1.073,0,0,1-.783-.367,9.3,9.3,0,0,1-.649-2.629c-.241-1.2-.006-.721-.88-1.307a8.73,8.73,0,0,1-3.056-3.5,10.309,10.309,0,0,1-.786-4.562h-.23a2.775,2.775,0,0,1-.953,1.175C.79,19.827.1,19.53,0,19.138v-.2a.553.553,0,0,1,.482-.377c.553-.1,1.422-.323,1.588-.941-.618-.052-1.726-.587-1.726-1.209a1.5,1.5,0,0,1,.415-1.137,1.354,1.354,0,0,1,2.036.3,2.067,2.067,0,0,1,.425,1.357h.115a8.007,8.007,0,0,1,1.51-3.779c.4-.536,2.187-2.373,2.859-2.373.352,0,.737.53.061.924a9.518,9.518,0,0,0-1.039.744C3.687,14.792,3.253,20.14,5.593,23.3a5.14,5.14,0,0,0,.806.92l.467.4c1.079.842,1.644.765,1.822,1.684.1.5.184.993.287,1.5.092.465.176.982.283,1.443a.852.852,0,0,0,.287.057c1.965,0,1.994.193,2.105-.425.176-.974.1-2.153,1.186-2.009a18.307,18.307,0,0,0,2.4.075c1.452,0,2.472-.486,2.792.2a12.16,12.16,0,0,1,.427,2.1,10,10,0,0,0,2.128.057c.325,0,.457-1.389.513-1.672.467-2.317,0-1.831,1.554-2.759a3.959,3.959,0,0,0,.339-.237A9.571,9.571,0,0,0,24.907,22.8c.735-.936.528-1.125,1.749-1.471.281-.08.532-.174.779-.256.555-.184,1.144-.251,1.144-.985,0-2.264.31-2.342-1.144-2.826-1.121-.373-1.246-.478-1.642-1.521a13.657,13.657,0,0,0-1.125-1.98c-.176.128-.258.461-.377.658-.959,1.594-3.308,1.181-4.468.161a3.412,3.412,0,0,1-1.02-2.315c0-.859.1-1.3.115-1.726a7.075,7.075,0,0,0-.8-.172c-.189.706-1.437,1.41-1.667,1.726a6.03,6.03,0,0,1,.658.205.489.489,0,0,1,.377.427c0,.846-1.309.207-1.682.13a10.338,10.338,0,0,0-1.026-.182,11.92,11.92,0,0,0-4.833.392,1.507,1.507,0,0,1-.452.121c-.163,0-.4-.182-.4-.346,0-.628.513-.524.978-.748a4.087,4.087,0,0,0-.5-.417,6.911,6.911,0,0,1-1.269-1.433,5.772,5.772,0,0,1-.874-3.44A5.661,5.661,0,0,1,9.158,2.969c.052-.052.107-.1.161-.155L9.248,1.4c0-.092.147-.576.57-.32l1.125.675a5.806,5.806,0,0,1,1.38-.381v-.01a5.2,5.2,0,0,1,.7-.061l.09,0L13.894.2c.052-.075.469-.362.647.1l.486,1.259a5.762,5.762,0,0,1,3.484,2.968.431.431,0,0,1-.4.622c-.362,0-.4-.251-.54-.494a4.909,4.909,0,0,0-2.685-2.2,5.039,5.039,0,0,0-3.712.184A5.222,5.222,0,0,0,8.991,4.647ZM22.424,14.57a2.5,2.5,0,0,1-2.116-.76,3.218,3.218,0,0,1-.346-3.31,15,15,0,0,1,4.07-1.393c.5.943.1,3.232-.165,4.032-.253.758-.446,1.431-1.445,1.431Z" transform="translate(2.281 0.903)"/><rect class="b" width="36" height="36" rx="5"/></svg>