<svg xmlns="http://www.w3.org/2000/svg" xmlns:xlink="http://www.w3.org/1999/xlink" width="130" height="130" viewBox="0 0 130 130"><defs><style>.a,.c{fill:#fff;}.a{stroke:rgba(236,236,236,0.5);stroke-width:5px;}.b{fill:url(#c);}.d{stroke:none;}.e{fill:none;}.f{filter:url(#a);}</style><filter id="a" x="0" y="0" width="130" height="130" filterUnits="userSpaceOnUse"><feOffset dy="5" input="SourceAlpha"/><feGaussianBlur stdDeviation="5" result="b"/><feFlood flood-color="#042837" flood-opacity="0.169"/><feComposite operator="in" in2="b"/><feComposite in="SourceGraphic"/></filter><linearGradient id="c" x1="0.135" y1="0.878" x2="0.904" y2="0.15" gradientUnits="objectBoundingBox"><stop offset="0" stop-color="#6c1aeb"/><stop offset="1" stop-color="#5346b7"/></linearGradient></defs><g transform="translate(-528 -77)"><g class="f" transform="matrix(1, 0, 0, 1, 528, 77)"><g class="a" transform="translate(15 10)"><circle class="d" cx="50" cy="50" r="50"/><circle class="e" cx="50" cy="50" r="47.5"/></g></g><g transform="translate(-366.305 -22.305)"><circle class="b" cx="33" cy="33" r="33" transform="translate(926.305 126.305)"/><path class="c" d="M53.3,27.8H47.433a21.728,21.728,0,0,0-43.45-.442c-.244,12.149,11.194,22.7,23.388,22.7H28.9c10.75,0,25.158-8.385,27.409-18.6A3.046,3.046,0,0,0,53.3,27.8Zm-36.315.533a2.917,2.917,0,0,1-5.834,0v-4.7a2.917,2.917,0,0,1,5.834,0Zm10.13,0a2.917,2.917,0,0,1-5.834,0v-4.7a2.917,2.917,0,0,1,5.834,0Z" transform="translate(929.832 131.911)"/></g></g></svg>