<svg xmlns="http://www.w3.org/2000/svg" xmlns:xlink="http://www.w3.org/1999/xlink" width="130" height="130" viewBox="0 0 130 130"><defs><style>.a{fill:#fff;stroke:rgba(236,236,236,0.5);stroke-width:5px;}.b{fill-rule:evenodd;fill:url(#c);}.c{stroke:none;}.d{fill:none;}.e{filter:url(#a);}</style><filter id="a" x="0" y="0" width="130" height="130" filterUnits="userSpaceOnUse"><feOffset dy="5" input="SourceAlpha"/><feGaussianBlur stdDeviation="5" result="b"/><feFlood flood-color="#042837" flood-opacity="0.169"/><feComposite operator="in" in2="b"/><feComposite in="SourceGraphic"/></filter><linearGradient id="c" y1="1" x2="1" gradientUnits="objectBoundingBox"><stop offset="0" stop-color="#9746fe"/><stop offset="1" stop-color="#05cc90"/></linearGradient></defs><g transform="translate(-528 -77)"><g class="e" transform="matrix(1, 0, 0, 1, 528, 77)"><g class="a" transform="translate(15 10)"><circle class="c" cx="50" cy="50" r="50"/><circle class="d" cx="50" cy="50" r="47.5"/></g></g><path class="b" d="M13.015,44.013a2.245,2.245,0,0,1,1.6-.722H65a1.107,1.107,0,0,1,.8,1.852L55.12,57a2.245,2.245,0,0,1-1.6.722H3.106a1.106,1.106,0,0,1-.8-1.852Zm52.832-9.829a1.107,1.107,0,0,1-.8,1.852l-50.395.04a2.244,2.244,0,0,1-1.6-.722L2.288,23.538a1.106,1.106,0,0,1,.8-1.852l50.395-.04a2.245,2.245,0,0,1,1.6.722ZM13.015.722A2.245,2.245,0,0,1,14.618,0L65.03.04a1.106,1.106,0,0,1,.8,1.852L55.12,13.709a2.245,2.245,0,0,1-1.6.722H3.106a1.106,1.106,0,0,1-.8-1.852Z" transform="translate(558.932 108.139)"/></g></svg>