<svg xmlns="http://www.w3.org/2000/svg" xmlns:xlink="http://www.w3.org/1999/xlink" width="130" height="130" viewBox="0 0 130 130"><defs><style>.a{fill:#fff;stroke:rgba(236,236,236,0.5);stroke-width:5px;}.b{fill:url(#c);}.c{fill:url(#d);}.d{stroke:none;}.e{fill:none;}.f{filter:url(#a);}</style><filter id="a" x="0" y="0" width="130" height="130" filterUnits="userSpaceOnUse"><feOffset dy="5" input="SourceAlpha"/><feGaussianBlur stdDeviation="5" result="b"/><feFlood flood-color="#042837" flood-opacity="0.169"/><feComposite operator="in" in2="b"/><feComposite in="SourceGraphic"/></filter><linearGradient id="c" x1="0.131" y1="0.159" x2="0.704" y2="0.676" gradientUnits="objectBoundingBox"><stop offset="0" stop-color="#ffc10b"/><stop offset="1" stop-color="#fb3f2e"/></linearGradient><radialGradient id="d" cx="0.186" cy="0.797" r="0.735" gradientTransform="matrix(0.378, 0.924, -0.923, 0.386, -1.277, 0.275)" xlink:href="#c"/></defs><g transform="translate(-880 -77)"><g class="f" transform="matrix(1, 0, 0, 1, 880, 77)"><g class="a" transform="translate(15 10)"><circle class="d" cx="50" cy="50" r="50"/><circle class="e" cx="50" cy="50" r="47.5"/></g></g><g transform="translate(911.99 103.85)"><path class="b" d="M33.516,63.8a1.252,1.252,0,1,1-1.266,1.252A1.259,1.259,0,0,1,33.516,63.8ZM32.141,3.988a1.318,1.318,0,0,1,1.2,1.128l1.506,10.94A4.543,4.543,0,0,0,42.4,18.779L57.49,5.049a.9.9,0,0,1,1.266.051.877.877,0,0,1,.021,1.175L45.622,21.45A4.517,4.517,0,0,0,48.679,28.9l11.607,1.119a1.037,1.037,0,0,1,.062,2.06l-12.2,1.9a4.52,4.52,0,0,0-2.841,7.4L49.6,46.442a.954.954,0,0,1-.121,1.355.983.983,0,0,1-1.217.027l-5.285-3.992a4.546,4.546,0,0,0-7.265,3.228L34.545,60.906a1.053,1.053,0,0,1-2.09.054L30.608,47.586a4.54,4.54,0,0,0-7.556-2.724L7,59.475a.825.825,0,0,1-1.156-.047.8.8,0,0,1-.02-1.073L19.834,42.192a4.513,4.513,0,0,0-3.046-7.454L5.179,33.619a1.038,1.038,0,0,1-.062-2.06l12.188-1.9a4.523,4.523,0,0,0,2.852-7.4l-2.919-3.441a1.183,1.183,0,0,1,.15-1.681A1.219,1.219,0,0,1,18.9,17.1l3.584,2.709a4.546,4.546,0,0,0,7.265-3.228l.964-11.4a1.32,1.32,0,0,1,1.43-1.195ZM1.266,31.2a1.252,1.252,0,1,1,0,2.5,1.252,1.252,0,1,1,0-2.5Zm63.488-1.271a1.252,1.252,0,1,1-1.266,1.252A1.259,1.259,0,0,1,64.754,29.933ZM31.958,0a1.259,1.259,0,0,1,1.266,1.252,1.266,1.266,0,0,1-2.532,0A1.259,1.259,0,0,1,31.958,0Z"/><path class="c" d="M27.548,38.669A11.827,11.827,0,1,0,15.591,26.842,11.893,11.893,0,0,0,27.548,38.669Z" transform="translate(5.169 4.978)"/></g></g></svg>