<svg xmlns="http://www.w3.org/2000/svg" width="36" height="36" viewBox="0 0 36 36"><defs><style>.a{fill:none;opacity:0;}.b{fill:#ffe983;}.b,.c,.d,.e{fill-rule:evenodd;}.c{fill:#ffab15;}.d{fill:#fedc40;}.e{fill:#fff3bf;}</style></defs><rect class="a" width="36" height="36" rx="5"/><g transform="translate(3.408 2.712)"><g transform="translate(-0.01 -0.02)"><path class="b" d="M149.691,20.378a14.864,14.864,0,0,0,1.94-1.756c.169-.17.25-.247.454-.442l1.1-1.287c.171-.2.1-.161.315-.226.008-.152.021-.134.439-.337a8.165,8.165,0,0,1,1.96-.673,5.264,5.264,0,0,1,3.062.207l.033.009c.128-.446.569-1.15.784-1.659a21.9,21.9,0,0,0,1.852-10.086,33.152,33.152,0,0,0-.6-4.129,2.785,2.785,0,0,0-1.038.258,2.265,2.265,0,0,0-.812.563,2.682,2.682,0,0,0-.823,1.928,23.337,23.337,0,0,1-3.79,12.235l-.155.2a4.81,4.81,0,0,0-2.67-3.429,6.181,6.181,0,0,0-5.043.141,9.886,9.886,0,0,0-1.915,1.134,10.181,10.181,0,0,0-3.42,5.011,4.158,4.158,0,0,1-.166.611l.886.44.746-.9c1.041-1.246,4.3-3.658,6.222-2.73a1.789,1.789,0,0,1,1.031,1.182,2.421,2.421,0,0,1,.145.932,6.086,6.086,0,0,1-.06,1.078,7.121,7.121,0,0,1-.205.871,7.373,7.373,0,0,0-.274.85Z" transform="translate(-138.33 0)"/><path class="b" d="M669.072,772.376l-.033-.009a21.949,21.949,0,0,1-1.326,2.125l-1.494,1.934-.116-.073.062.167c.029.431.119.775.137,1.269a7.089,7.089,0,0,1-.079,1.371,9.193,9.193,0,0,1-1.724,4.017,5.686,5.686,0,0,1-1.382,1.46c0,.107.031.088-.06.088a5.374,5.374,0,0,1-1,.789c-.176.13-.191.112-.191.407a6.228,6.228,0,0,0,4.313-.052,8.9,8.9,0,0,0,3.117-1.966,11.724,11.724,0,0,0,1.181-1.331c.194-.259.313-.466.5-.753a8.835,8.835,0,0,0,1.291-3.851c.007-.28.063-.384.051-.589-.01-.182-.051-.32-.051-.607a4.445,4.445,0,0,1,2.464,1.841,5.5,5.5,0,0,1,.884,3.481c.144.069.272.1.418.179.11-.209.243-.4.356-.6l.336-.62a7.9,7.9,0,0,0,.777-4.793,4.862,4.862,0,0,0-3.622-4.06l-.414.99c-.126.326-.248.6-.393.922l-.9,1.732c0-.009-.019.021-.029.029a5.669,5.669,0,0,1-.206-.63c-.438-1.221-1.791-2.8-2.866-2.867Z" transform="translate(-648.406 -756.503)"/><path class="c" d="M-.01,992.1a2.928,2.928,0,0,0,1.093,2.664,2.6,2.6,0,0,0,.887.429,5.291,5.291,0,0,0,1.115.186H5.373a27.818,27.818,0,0,0,3.582-.423,23.506,23.506,0,0,0,3.908-1.174l1.777-.794.06-.088a5.685,5.685,0,0,0,1.382-1.46,9.19,9.19,0,0,0,1.724-4.017,7.084,7.084,0,0,0,.079-1.371c-.018-.494-.108-.838-.137-1.269a4.075,4.075,0,0,0-.824.8,22.066,22.066,0,0,1-2.495,2.169,22.143,22.143,0,0,1-11.391,4.274c-.834.071-2.86.044-3.048.073Z" transform="translate(0.01 -964.762)"/><path class="d" d="M11.361,823.65a23.536,23.536,0,0,1-8.276,4.293A4.2,4.2,0,0,0,.731,829,2.643,2.643,0,0,0,0,830.609c.189-.029,2.215,0,3.048-.073a22.145,22.145,0,0,0,11.391-4.274,22.072,22.072,0,0,0,2.495-2.169,4.059,4.059,0,0,1,.824-.8l-.062-.167a4.786,4.786,0,0,0-2.085-2.933,4.648,4.648,0,0,1-.439-.251c-.214.065-.144.022-.315.226l-1.1,1.287c-.2.2-.285.272-.454.442A14.862,14.862,0,0,1,11.361,823.65Z" transform="translate(0 -803.272)"/><path class="d" d="M1016.65,15.854c1.075.064,2.428,1.646,2.866,2.867a5.689,5.689,0,0,0,.206.63c.01-.009.025-.039.029-.029l.9-1.732c.145-.32.266-.6.393-.922l.414-.99a31.945,31.945,0,0,0,.957-4.157,22.1,22.1,0,0,0-.73-9.316,2.778,2.778,0,0,0-3-2.225,33.123,33.123,0,0,1,.6,4.129,21.9,21.9,0,0,1-1.852,10.086c-.214.509-.656,1.213-.784,1.659Z" transform="translate(-995.984 0.02)"/><path class="e" d="M746.39,765.271a4.773,4.773,0,0,0,.439.251,4.786,4.786,0,0,1,2.085,2.933l.116.073,1.494-1.934a21.985,21.985,0,0,0,1.326-2.125,5.263,5.263,0,0,0-3.062-.207,8.162,8.162,0,0,0-1.96.673c-.419.2-.432.184-.439.337Z" transform="translate(-731.218 -748.604)"/></g></g></svg>