<svg xmlns="http://www.w3.org/2000/svg" width="36" height="36" viewBox="0 0 36 36"><defs><style>.a{fill:none;}.b,.d{fill:#fce4b0;}.b,.c{fill-rule:evenodd;}.c{fill:#f0d18d;}</style></defs><rect class="a" width="36" height="36" rx="5"/><g transform="translate(2.682 3.973)"><path class="b" d="M349.211,1.41a54.95,54.95,0,0,1-1.293,7.92l-.826-.2a4.541,4.541,0,0,0-1.52-3.8,3.866,3.866,0,0,1-1.652-2.188,2.679,2.679,0,0,1,4.767-2.087c.223.326.341.343.524.354Z" transform="translate(-323.401)"/><path class="b" d="M12.373,305.636a23.479,23.479,0,0,0,7.258.51l.707-.23a4.541,4.541,0,0,1-3.189-2.561,3.867,3.867,0,0,0-1.611-2.218,2.679,2.679,0,0,0-3.386,3.951c.246.308.251.43.222.548Z" transform="translate(-10.925 -282.921)"/><path class="c" d="M1.486,33.656a29.223,29.223,0,0,0,3.331.5,17.64,17.64,0,0,0,13.948-4.613c6.062-5.84,5.9-10.966,6.6-13.715l.031-.235c.143-1.082.311-2.19.415-3.259.16,0,.246.053.555-.193a2.679,2.679,0,0,1,3.951,3.386A3.866,3.866,0,0,1,28.1,17.139a4.741,4.741,0,0,0-.749.415,24.155,24.155,0,0,1-7.334,13.919A19.982,19.982,0,0,1,6.137,36.552a4.592,4.592,0,0,0-.8.734,3.866,3.866,0,0,1-2.188,1.652,2.679,2.679,0,0,1-2.087-4.767c.326-.223.42-.4.421-.516Z" transform="translate(0 -10.925)"/><path class="d" d="M101.453,78.145c-.6,5.525-2.45,10.072-6.928,14.1-3.74,3.362-7.107,4.73-13.625,4.309l.155-2.351a15.68,15.68,0,0,0,11.9-3.828A19.679,19.679,0,0,0,98.965,77.96l2.487.185Z" transform="translate(-76.083 -73.327)"/></g></svg>