<svg xmlns="http://www.w3.org/2000/svg" width="20.509" height="53.8" viewBox="0 0 20.509 53.8"><defs><style>.a{fill:#fff;}</style></defs><path class="a" d="M13.888,52.735a5.975,5.975,0,0,1-1.555-.392,6.475,6.475,0,0,1-.958-.482,4.553,4.553,0,0,1-1.291,1.119c-.174.1-.354.2-.541.287a4.437,4.437,0,0,1-.528.217,4.646,4.646,0,0,1-.521.147c-.167.042-.347.077-.541.112h0c-.118.021-.229.035-.326.049l-.333.028a5.858,5.858,0,0,1-2.055-.266,6.066,6.066,0,0,1-1.847-.965A5.94,5.94,0,0,1,1.92,50.925a6.07,6.07,0,0,1-.764-2.111h0c-.021-.133-.042-.273-.056-.4s-.021-.266-.028-.392a5.4,5.4,0,0,1,.1-1.4,5.264,5.264,0,0,1,.423-1.244,6.31,6.31,0,0,1,.673-1.091,12.175,12.175,0,0,1,.868-1.021l.493-.517a9.248,9.248,0,0,0,1.139-1.321,4.1,4.1,0,0,0,.618-1.6c.014-.1.028-.364.035-.734.007-.461.007-1.056,0-1.7-.007-.839-.028-1.79-.049-2.664-.035-1.335-.069-2.517-.083-2.866-.056-1.3-.1-2.713-.132-4.167s-.062-2.915-.09-4.335L4.988,19.7c-.014-.587-.014-1.14-.014-1.643v-.021a10.408,10.408,0,0,0-.229-2.852,5.472,5.472,0,0,0-1.652-2.391A14.043,14.043,0,0,1,1.5,11.012,8.416,8.416,0,0,1,.379,8.971,5.728,5.728,0,0,1,.025,6.622,5.9,5.9,0,0,1,.8,4.119c.069-.126.146-.252.222-.364s.16-.238.243-.343a6.02,6.02,0,0,1,1.569-1.44,5.8,5.8,0,0,1,1.972-.783,5.892,5.892,0,0,1,2.159-.028,6.177,6.177,0,0,1,2.062.748l.118.07.09-.1a5.561,5.561,0,0,1,1.756-1.3A5.816,5.816,0,0,1,13.159.036a6.137,6.137,0,0,1,4.172,1.356c.076.077.187.147.271.231a5.987,5.987,0,0,1,.8.895,5.392,5.392,0,0,1,.59,1.042,6.011,6.011,0,0,1,.368,1.154,5.72,5.72,0,0,1,.132,1.216h0a5.586,5.586,0,0,1-.778,3.034,10.322,10.322,0,0,1-1.659,1.965,9.669,9.669,0,0,0-1.236,1.391,3.843,3.843,0,0,0-.66,1.72c-.042.329-.028,1.685,0,3.391.035,1.741.083,3.789.132,5.488v.126c.035,1.412.069,2.58.069,3.118l.215,8.18.014,1.112c0,1.58.007,3.258.673,4.348a8.626,8.626,0,0,0,1.173,1.286l.007.007c1.493,1.461,3.374,3.293,3.041,6.306a6.494,6.494,0,0,1-.423,1.692,5.946,5.946,0,0,1-.875,1.482,6.243,6.243,0,0,1-1.069,1.035,5.982,5.982,0,0,1-1.305.734,6.177,6.177,0,0,1-1.437.392,5.862,5.862,0,0,1-1.486.021Z" transform="translate(-0.013 -0.027)"/><path class="a" d="M13.3,51.77a4.968,4.968,0,0,0,1.25.315,4.864,4.864,0,0,0,1.194-.021,4.665,4.665,0,0,0,1.16-.315,4.779,4.779,0,0,0,2.937-3.966c.264-2.441-1.389-4.049-2.694-5.329l-.007-.007A8.544,8.544,0,0,1,15.8,40.93c-.84-1.378-.847-3.231-.854-4.973V35.4l-.007-.525-.215-8.2c-.007-.5-.035-1.679-.069-3.105v-.126c-.049-1.72-.1-3.791-.132-5.5-.035-1.741-.042-3.161.007-3.56a4.91,4.91,0,0,1,.854-2.252,10.621,10.621,0,0,1,1.382-1.56,9.206,9.206,0,0,0,1.479-1.734,4.433,4.433,0,0,0,.611-2.4,4.824,4.824,0,0,0-.111-.986,4.525,4.525,0,0,0-.292-.916,4.577,4.577,0,0,0-.465-.818,4.508,4.508,0,0,0-.625-.706l-.222-.2a4.758,4.758,0,0,0-1.576-.853,4.846,4.846,0,0,0-1.784-.231,4.7,4.7,0,0,0-1.722.427A4.37,4.37,0,0,0,10.678,3.17l-.146.175c-.083.1-.174.217-.278.336L9.9,4.058l-.424-.3L9.241,3.6,9,3.45a5.186,5.186,0,0,0-1.68-.608,4.821,4.821,0,0,0-1.736.021,4.573,4.573,0,0,0-1.569.629A4.807,4.807,0,0,0,2.756,4.646c-.069.091-.132.182-.194.28s-.125.2-.181.294a4.707,4.707,0,0,0-.625,1.993,4.6,4.6,0,0,0,.278,1.86A7.073,7.073,0,0,0,3,10.814,12.735,12.735,0,0,0,4.45,12.437a6.536,6.536,0,0,1,1.972,2.916,11.051,11.051,0,0,1,.278,3.21v.021c0,.483,0,1.021.014,1.6l.076,3.679c.028,1.455.056,2.93.09,4.329s.076,2.8.132,4.147c.014.329.049,1.5.083,2.888.021.867.042,1.818.049,2.686.007.671.007,1.28,0,1.734a7.576,7.576,0,0,1-.049.916,5.282,5.282,0,0,1-.805,2.07,10.818,10.818,0,0,1-1.278,1.483l-.486.5a11.508,11.508,0,0,0-.778.909,5.4,5.4,0,0,0-.555.9,4.087,4.087,0,0,0-.4,2.049c.007.112.014.224.028.329l.049.329a5.088,5.088,0,0,0,.618,1.707,4.6,4.6,0,0,0,1.173,1.329,4.693,4.693,0,0,0,1.479.776,4.637,4.637,0,0,0,1.639.21l.257-.021.264-.042c.16-.028.312-.063.472-.1a3.724,3.724,0,0,0,.41-.119,3.137,3.137,0,0,0,.41-.168c.125-.063.271-.14.437-.238a3.7,3.7,0,0,0,1.048-.923l.673-.755.43.322a4.955,4.955,0,0,0,1.146.643Z" transform="translate(-0.544 -0.548)"/><path d="M5.206,5.312l.111,4.251-3.8.084a8.174,8.174,0,0,0,.583.832,13.089,13.089,0,0,0,1.583,1.65,8.642,8.642,0,0,1,1.638,1.853h0a.284.284,0,0,1,.035.063v-.063h0v.063a5.1,5.1,0,0,1,.4.923,10.68,10.68,0,0,1,.305,3.272v.007l4.089-.091-.111-4.412-4.513.1L5.415,9.43l4.513-.1L9.816,4.92l-4.513.1L5.234,2.186c-.132.014-.264.035-.4.056a5.347,5.347,0,0,0-1.715.636A5.15,5.15,0,0,0,1.749,4.053c-.076.091-.146.189-.215.28s-.132.2-.194.3a5.809,5.809,0,0,0-.319.615l4.11-.091ZM15.76,44.6l.111,4.412,4.235-.1a3.417,3.417,0,0,1-.146.371,4.632,4.632,0,0,1-.757,1.2,5.139,5.139,0,0,1-.937.839,5.381,5.381,0,0,1-1.139.6,5.881,5.881,0,0,1-1.264.322l-.09.014-.083-3.175-4.666.1-.111-4.552,4.666-.1-.1-4.251-4.666.1-.118-4.552,4.291-.1v.112a12.335,12.335,0,0,0,.479,4.174h0v.007h0v.007h0l.007.014h0v.007h0v.007h0v.007l.007.014.007.021.007.014.007.014.007.014a3.994,3.994,0,0,0,.354.657,9.311,9.311,0,0,0,1.472,1.545l.007.007A14.485,14.485,0,0,1,19.3,44.413l-3.6.077Zm-.875-13.111-4.3.1-.118-4.552,4.284-.1.125,4.552Zm-.236-8.8-4.284.1-.118-4.552,4.284-.1C14.565,19.59,14.607,21.233,14.649,22.688Zm.222-13.356.076,3.119a4.683,4.683,0,0,0-.417,1.426l-4.388.1-.118-4.552,4.666-.1-.1-4.251-4.666.1-.056-2.2c.111-.112.2-.224.292-.329l.16-.182a4.712,4.712,0,0,1,1.5-1.028A5.362,5.362,0,0,1,13.7,1a5.571,5.571,0,0,1,.965.035l.1,3.895,4.374-.1a5.284,5.284,0,0,1,.111.972,4.232,4.232,0,0,1-.667,2.447,6.182,6.182,0,0,1-.84,1.021l-2.874.063ZM6.387,44.847,6.5,49.252l4.513-.1.069,2.65-.174.182a3.958,3.958,0,0,1-1.139.937,5.209,5.209,0,0,1-.479.245,3.681,3.681,0,0,1-.444.168c-.16.049-.305.091-.444.119-.174.035-.34.07-.514.1l-.285.042-.285.021a5.312,5.312,0,0,1-.882-.028l-.1-4.251-4.374.1-.035-.245c-.014-.1-.021-.217-.028-.336a3.972,3.972,0,0,1,.437-2.091,5.43,5.43,0,0,1,.6-.909,10.366,10.366,0,0,1,.847-.93l.09-.091,2.354-.049-.069-2.643A5.156,5.156,0,0,0,6.581,40.8a3.065,3.065,0,0,0,.035-.357l4.186-.091.111,4.412-4.513.1Zm.2-8.824,4.089-.091-.111-4.405-4.117.091.035.8c.014.336.056,1.531.09,2.937l.014.664ZM6.317,27.2l4.145-.091L10.351,22.7l-4.131.091.021.986C6.262,24.918,6.29,26.079,6.317,27.2Z" transform="translate(-0.321 -0.322)"/></svg>