<svg xmlns="http://www.w3.org/2000/svg" xmlns:xlink="http://www.w3.org/1999/xlink" width="262" height="47" viewBox="0 0 262 47"><defs><style>.a{fill:none;}.b{clip-path:url(#a);}.c{fill:#fff;}.d{fill:#232323;}</style><clipPath id="a"><rect class="a" width="259" height="47"/></clipPath></defs><g class="b" transform="translate(3)"><g transform="translate(-1612 -225)"><rect class="c" width="24" height="24" transform="translate(1612 225)"/><rect class="d" width="24" height="24" transform="translate(1636 225)"/><path class="d" d="M0,0H24.292V24.292H0Z" transform="translate(1612 248.578)"/><rect class="c" width="24" height="24" transform="translate(1636 249)"/></g><g transform="translate(-1565 -225)"><rect class="c" width="24" height="24" transform="translate(1612 225)"/><rect class="d" width="24" height="24" transform="translate(1636 225)"/><path class="d" d="M0,0H24.292V24.292H0Z" transform="translate(1612 248.578)"/><rect class="c" width="24" height="24" transform="translate(1636 249)"/></g><g transform="translate(-1518 -225)"><rect class="c" width="24" height="24" transform="translate(1612 225)"/><rect class="d" width="24" height="24" transform="translate(1636 225)"/><path class="d" d="M0,0H24.292V24.292H0Z" transform="translate(1612 248.578)"/><rect class="c" width="24" height="24" transform="translate(1636 249)"/></g><g transform="translate(-1471 -225)"><rect class="c" width="24" height="24" transform="translate(1612 225)"/><rect class="d" width="24" height="24" transform="translate(1636 225)"/><path class="d" d="M0,0H24.292V24.292H0Z" transform="translate(1612 248.578)"/><rect class="c" width="24" height="24" transform="translate(1636 249)"/></g><g transform="translate(-1424 -225)"><rect class="c" width="24" height="24" transform="translate(1612 225)"/><rect class="d" width="24" height="24" transform="translate(1636 225)"/><path class="d" d="M0,0H24.292V24.292H0Z" transform="translate(1612 248.578)"/><rect class="c" width="24" height="24" transform="translate(1636 249)"/></g><g transform="translate(-1377 -225)"><rect class="c" width="24" height="24" transform="translate(1612 225)"/><rect class="d" width="24" height="24" transform="translate(1636 225)"/><path class="d" d="M0,0H24.292V24.292H0Z" transform="translate(1612 248.578)"/><rect class="c" width="24" height="24" transform="translate(1636 249)"/></g></g></svg>