<svg xmlns="http://www.w3.org/2000/svg" width="36" height="36" viewBox="0 0 36 36"><defs><style>.a{fill:none;opacity:0;}.b{fill:#fff;}.c,.d{stroke:none;}.d{fill:#e70dff;}</style></defs><rect class="a" width="36" height="36" rx="5"/><g transform="translate(-5845.355 -324.616)"><g class="b" transform="translate(5852 330)"><path class="c" d="M 16.40142631530762 24.73297500610352 L 6.308246612548828 24.73297500610352 C 3.105566501617432 24.73297500610352 0.4999964535236359 22.12740516662598 0.4999964535236359 18.92472648620605 L 0.4999964535236359 6.308245658874512 C 0.4999964535236359 3.105575561523438 3.105566501617432 0.5000056028366089 6.308246612548828 0.5000056028366089 L 16.40142631530762 0.5000056028366089 C 19.60410690307617 0.5000056028366089 22.20967674255371 3.105575561523438 22.20967674255371 6.308245658874512 L 22.20967674255371 18.92472648620605 C 22.20967674255371 22.12740516662598 19.60410690307617 24.73297500610352 16.40142631530762 24.73297500610352 Z"/><path class="d" d="M 6.308246612548828 0.9999961853027344 C 3.381265640258789 0.9999961853027344 0.9999961853027344 3.381265640258789 0.9999961853027344 6.308244705200195 L 0.9999961853027344 18.92472457885742 C 0.9999961853027344 21.8516960144043 3.381265640258789 24.23296546936035 6.308246612548828 24.23296546936035 L 16.40142631530762 24.23296546936035 C 19.32840728759766 24.23296546936035 21.70967674255371 21.8516960144043 21.70967674255371 18.92472457885742 L 21.70967674255371 6.308244705200195 C 21.70967674255371 3.381265640258789 19.32840728759766 0.9999961853027344 16.40142631530762 0.9999961853027344 L 6.308246612548828 0.9999961853027344 M 6.308246612548828 -3.814697265625e-06 L 16.40142631530762 -3.814697265625e-06 C 19.8853759765625 -3.814697265625e-06 22.70967674255371 2.824295043945313 22.70967674255371 6.308244705200195 L 22.70967674255371 18.92472457885742 C 22.70967674255371 22.40867614746094 19.8853759765625 25.23296546936035 16.40142631530762 25.23296546936035 L 6.308246612548828 25.23296546936035 C 2.824296951293945 25.23296546936035 -3.814697265625e-06 22.40867614746094 -3.814697265625e-06 18.92472457885742 L -3.814697265625e-06 6.308244705200195 C -3.814697265625e-06 2.824295043945313 2.824296951293945 -3.814697265625e-06 6.308246612548828 -3.814697265625e-06 Z"/></g><g class="b" transform="translate(5855 335.297)"><path class="c" d="M 14.62148761749268 15.7209358215332 L 2.08913779258728 15.7209358215332 C 1.212887644767761 15.7209358215332 0.4999977052211761 14.95333576202393 0.4999977052211761 14.00982570648193 C 0.4999977052211761 13.06559562683105 1.212887644767761 12.29740619659424 2.08913779258728 12.29740619659424 L 14.62148761749268 12.29740619659424 C 15.49705791473389 12.29740619659424 16.20937728881836 13.06559562683105 16.20937728881836 14.00982570648193 C 16.20937728881836 14.95333576202393 15.49705791473389 15.7209358215332 14.62148761749268 15.7209358215332 Z M 14.62148761749268 9.822896003723145 L 2.08913779258728 9.822896003723145 C 1.212887644767761 9.822896003723145 0.4999977052211761 9.054705619812012 0.4999977052211761 8.110466003417969 C 0.4999977052211761 7.166225910186768 1.212887644767761 6.398036003112793 2.08913779258728 6.398036003112793 L 14.62148761749268 6.398036003112793 C 15.49705791473389 6.398036003112793 16.20937728881836 7.166225910186768 16.20937728881836 8.110466003417969 C 16.20937728881836 9.054705619812012 15.49705791473389 9.822896003723145 14.62148761749268 9.822896003723145 Z M 9.050857543945313 3.923526048660278 L 2.08913779258728 3.923526048660278 C 1.212887644767761 3.923526048660278 0.4999977052211761 3.155925989151001 0.4999977052211761 2.212425947189331 C 0.4999977052211761 1.268185973167419 1.212887644767761 0.4999960064888 2.08913779258728 0.4999960064888 L 9.050857543945313 0.4999960064888 C 9.927107810974121 0.4999960064888 10.6399974822998 1.268185973167419 10.6399974822998 2.212425947189331 C 10.6399974822998 3.155925989151001 9.927107810974121 3.923526048660278 9.050857543945313 3.923526048660278 Z"/><path class="d" d="M 14.62148761749268 15.2209358215332 C 15.22134780883789 15.2209358215332 15.70937728881836 14.67763614654541 15.70937728881836 14.00982570648193 C 15.70937728881836 13.34129619598389 15.22134780883789 12.79740619659424 14.62148761749268 12.79740619659424 L 2.08913779258728 12.79740619659424 C 1.488587737083435 12.79740619659424 0.9999976754188538 13.34129619598389 0.9999976754188538 14.00982570648193 C 0.9999976754188538 14.67763614654541 1.488587737083435 15.2209358215332 2.08913779258728 15.2209358215332 L 14.62148761749268 15.2209358215332 M 14.62148761749268 9.322896003723145 C 15.22134780883789 9.322896003723145 15.70937728881836 8.779006004333496 15.70937728881836 8.110466003417969 C 15.70937728881836 7.441926002502441 15.22134780883789 6.898036003112793 14.62148761749268 6.898036003112793 L 2.08913779258728 6.898036003112793 C 1.488587737083435 6.898036003112793 0.9999976754188538 7.441926002502441 0.9999976754188538 8.110466003417969 C 0.9999976754188538 8.779006004333496 1.488587737083435 9.322896003723145 2.08913779258728 9.322896003723145 L 14.62148761749268 9.322896003723145 M 9.050857543945313 3.423526048660278 C 9.651407241821289 3.423526048660278 10.1399974822998 2.880225896835327 10.1399974822998 2.212425947189331 C 10.1399974822998 1.543885946273804 9.651407241821289 0.9999960064888 9.050857543945313 0.9999960064888 L 2.08913779258728 0.9999960064888 C 1.488587737083435 0.9999960064888 0.9999976754188538 1.543885946273804 0.9999976754188538 2.212425947189331 C 0.9999976754188538 2.880225896835327 1.488587737083435 3.423526048660278 2.08913779258728 3.423526048660278 L 9.050857543945313 3.423526048660278 M 14.62148761749268 16.2209358215332 L 2.08913779258728 16.2209358215332 C 0.934917688369751 16.2209358215332 -2.309265028088703e-06 15.2308464050293 -2.309265028088703e-06 14.00982570648193 C -2.309265028088703e-06 12.78748607635498 0.934917688369751 11.79740619659424 2.08913779258728 11.79740619659424 L 14.62148761749268 11.79740619659424 C 15.77445793151855 11.79740619659424 16.70937728881836 12.78748607635498 16.70937728881836 14.00982570648193 C 16.70937728881836 15.2308464050293 15.77445793151855 16.2209358215332 14.62148761749268 16.2209358215332 Z M 14.62148761749268 10.32289600372314 L 2.08913779258728 10.32289600372314 C 0.934917688369751 10.32289600372314 -2.309265028088703e-06 9.332805633544922 -2.309265028088703e-06 8.110466003417969 C -2.309265028088703e-06 6.889445781707764 0.934917688369751 5.898036003112793 2.08913779258728 5.898036003112793 L 14.62148761749268 5.898036003112793 C 15.77445793151855 5.898036003112793 16.70937728881836 6.889445781707764 16.70937728881836 8.110466003417969 C 16.70937728881836 9.332805633544922 15.77445793151855 10.32289600372314 14.62148761749268 10.32289600372314 Z M 9.050857543945313 4.423525810241699 L 2.08913779258728 4.423525810241699 C 0.934917688369751 4.423525810241699 -2.309265028088703e-06 3.433445930480957 -2.309265028088703e-06 2.212425947189331 C -2.309265028088703e-06 0.9900860190391541 0.934917688369751 -3.996582108811708e-06 2.08913779258728 -3.996582108811708e-06 L 9.050857543945313 -3.996582108811708e-06 C 10.20508766174316 -3.996582108811708e-06 11.1399974822998 0.9900860190391541 11.1399974822998 2.212425947189331 C 11.1399974822998 3.433445930480957 10.20508766174316 4.423525810241699 9.050857543945313 4.423525810241699 Z"/></g></g></svg>