<svg xmlns="http://www.w3.org/2000/svg" width="47.041" height="49.165" viewBox="0 0 47.041 49.165">
  <path id="icon-mcr" d="M20.339,10.79a2.69,2.69,0,0,1,2.785,2.583,2.793,2.793,0,0,1-5.57,0A2.69,2.69,0,0,1,20.339,10.79ZM40.9,27.284a2.56,2.56,0,0,0-2.337-.886c-1.05.19-1.928,1.125-2.471,2.633l-1.622,4.514c-.783,2.179-2.269,3.444-3.974,3.384-2.889-.1-3.8-3.7-4.137-5.056l-2.135-8.418-3.067,8.536c-.759,1.948-1.869,2.91-3.3,2.861-.949-.033-2.207-.525-2.824-2.7L10.19,13.445a17.833,17.833,0,0,0-4.974,7.3C1.862,30.079,7.2,40.167,17.112,43.228s20.7-2.038,24.059-11.372c.006-.017.015-.028.021-.044s.009-.033.015-.047c.744-1.78.629-3.411-.314-4.481h0Zm4.274,5.8h0l-.018.047-.018.047c-4.14,11.35-17.288,17.542-29.371,13.807C3.647,43.245-2.875,30.918,1.224,19.508A22.533,22.533,0,0,1,13.364,6.672l.012-.039,1.759-5.565c.11-.344,1.391-1.95,2.738-.457l3.6,3.989a24.37,24.37,0,0,1,9.165,1.01l.169.052,4.665-3.106c.314-.209,2.39-.743,2.459,1.2l.208,5.747a21.811,21.811,0,0,1,5.454,6.239,1.929,1.929,0,0,1-.848,2.69A2.175,2.175,0,0,1,39.9,17.7a.411.411,0,0,1-.021-.036,18.433,18.433,0,0,0-10.6-8.291,20.072,20.072,0,0,0-15.4,1.5l4.363,16.874L20.556,21.3c1.112-3.095,2.764-3.694,3.954-3.653s2.779.756,3.577,3.917l2.373,9.356c.074.3.151.564.222.795L32.09,27.8A7.644,7.644,0,0,1,37.8,22.509a6.9,6.9,0,0,1,6.356,2.234C46.077,26.924,46.445,29.961,45.17,33.089Zm-14.444-20.1a2.036,2.036,0,1,1-2.064,2.036A2.05,2.05,0,0,1,30.726,12.994Z" transform="translate(0.566 0.53)" fill="#6c1aeb" stroke="rgba(0,0,0,0)" stroke-miterlimit="10" stroke-width="1" fill-rule="evenodd"/>
</svg>
