<svg xmlns="http://www.w3.org/2000/svg" width="36" height="36" viewBox="0 0 36 36"><defs><style>.a{fill:none;opacity:0;}.b{fill:rgba(0,0,0,0);stroke:#0d90ff;stroke-linecap:round;}</style></defs><rect class="a" width="36" height="36" rx="5"/><g transform="translate(-142 -822.5)"><path class="b" d="M-5910.32,38.5H-5927s6.274-17.191,11.311-16.81c3.413.258,5.837,7.88,7.045,12.771,1.056-2.142,2.486-4.342,3.916-4.37,2.795-.052,5.728,8.409,5.728,8.409Zm.781-16.721A3.835,3.835,0,0,1-5905.66,18a3.836,3.836,0,0,1,3.881,3.78,3.836,3.836,0,0,1-3.881,3.78A3.835,3.835,0,0,1-5909.539,21.78Z" transform="translate(6071.921 813.5)"/></g></svg>