<svg xmlns="http://www.w3.org/2000/svg" width="36" height="36" viewBox="0 0 36 36"><defs><style>.a,.b{fill:none;}.a{opacity:0;}.c,.d{stroke:none;}.d{fill:#e70dff;}</style></defs><rect class="a" width="36" height="36" rx="5"/><g class="b" transform="translate(5810 327)"><path class="c" d="M-5786.8-296a3.9,3.9,0,0,1-3.9-3.9v-3.9a3.9,3.9,0,0,1,3.9-3.9h3.9a3.9,3.9,0,0,1,3.9,3.9v3.9a3.9,3.9,0,0,1-3.9,3.9Zm-14.3,0a3.9,3.9,0,0,1-3.9-3.9v-3.9a3.9,3.9,0,0,1,3.9-3.9h3.9a3.9,3.9,0,0,1,3.9,3.9v3.9a3.9,3.9,0,0,1-3.9,3.9Zm14.3-14.3a3.9,3.9,0,0,1-3.9-3.9v-3.9a3.9,3.9,0,0,1,3.9-3.9h3.9a3.9,3.9,0,0,1,3.9,3.9v3.9a3.9,3.9,0,0,1-3.9,3.9Zm-14.3,0a3.9,3.9,0,0,1-3.9-3.9v-3.9a3.9,3.9,0,0,1,3.9-3.9h3.9a3.9,3.9,0,0,1,3.9,3.9v3.9a3.9,3.9,0,0,1-3.9,3.9Z"/><path class="d" d="M -5782.900390625 -297.0004272460938 C -5781.30126953125 -297.0004272460938 -5780.00048828125 -298.3011779785156 -5780.00048828125 -299.9000244140625 L -5780.00048828125 -303.7995910644531 C -5780.00048828125 -305.3984680175781 -5781.30126953125 -306.69921875 -5782.900390625 -306.69921875 L -5786.7998046875 -306.69921875 C -5788.39892578125 -306.69921875 -5789.69970703125 -305.3984680175781 -5789.69970703125 -303.7995910644531 L -5789.69970703125 -299.9000244140625 C -5789.69970703125 -298.3011779785156 -5788.39892578125 -297.0004272460938 -5786.7998046875 -297.0004272460938 L -5782.900390625 -297.0004272460938 M -5797.19921875 -297.0004272460938 C -5795.6005859375 -297.0004272460938 -5794.2998046875 -298.3011779785156 -5794.2998046875 -299.9000244140625 L -5794.2998046875 -303.7995910644531 C -5794.2998046875 -305.3984680175781 -5795.6005859375 -306.69921875 -5797.19921875 -306.69921875 L -5801.09912109375 -306.69921875 C -5802.69873046875 -306.69921875 -5804.00048828125 -305.3984680175781 -5804.00048828125 -303.7995910644531 L -5804.00048828125 -299.9000244140625 C -5804.00048828125 -298.3011779785156 -5802.69873046875 -297.0004272460938 -5801.09912109375 -297.0004272460938 L -5797.19921875 -297.0004272460938 M -5782.900390625 -311.299560546875 C -5781.30126953125 -311.299560546875 -5780.00048828125 -312.6003112792969 -5780.00048828125 -314.1991577148438 L -5780.00048828125 -318.1006164550781 C -5780.00048828125 -319.699462890625 -5781.30126953125 -321.000244140625 -5782.900390625 -321.000244140625 L -5786.7998046875 -321.000244140625 C -5788.39892578125 -321.000244140625 -5789.69970703125 -319.699462890625 -5789.69970703125 -318.1006164550781 L -5789.69970703125 -314.1991577148438 C -5789.69970703125 -312.6003112792969 -5788.39892578125 -311.299560546875 -5786.7998046875 -311.299560546875 L -5782.900390625 -311.299560546875 M -5797.19921875 -311.299560546875 C -5795.6005859375 -311.299560546875 -5794.2998046875 -312.6003112792969 -5794.2998046875 -314.1991577148438 L -5794.2998046875 -318.1006164550781 C -5794.2998046875 -319.699462890625 -5795.6005859375 -321.000244140625 -5797.19921875 -321.000244140625 L -5801.09912109375 -321.000244140625 C -5802.69873046875 -321.000244140625 -5804.00048828125 -319.699462890625 -5804.00048828125 -318.1006164550781 L -5804.00048828125 -314.1991577148438 C -5804.00048828125 -312.6003112792969 -5802.69873046875 -311.299560546875 -5801.09912109375 -311.299560546875 L -5797.19921875 -311.299560546875 M -5782.900390625 -296.0004272460938 L -5786.7998046875 -296.0004272460938 C -5788.95361328125 -296.0004272460938 -5790.69970703125 -297.7466125488281 -5790.69970703125 -299.9000244140625 L -5790.69970703125 -303.7995910644531 C -5790.69970703125 -305.9530029296875 -5788.95361328125 -307.69921875 -5786.7998046875 -307.69921875 L -5782.900390625 -307.69921875 C -5780.74658203125 -307.69921875 -5779.00048828125 -305.9530029296875 -5779.00048828125 -303.7995910644531 L -5779.00048828125 -299.9000244140625 C -5779.00048828125 -297.7466125488281 -5780.74658203125 -296.0004272460938 -5782.900390625 -296.0004272460938 Z M -5797.19921875 -296.0004272460938 L -5801.09912109375 -296.0004272460938 C -5803.25390625 -296.0004272460938 -5805.00048828125 -297.7466125488281 -5805.00048828125 -299.9000244140625 L -5805.00048828125 -303.7995910644531 C -5805.00048828125 -305.9530029296875 -5803.25390625 -307.69921875 -5801.09912109375 -307.69921875 L -5797.19921875 -307.69921875 C -5795.0458984375 -307.69921875 -5793.2998046875 -305.9530029296875 -5793.2998046875 -303.7995910644531 L -5793.2998046875 -299.9000244140625 C -5793.2998046875 -297.7466125488281 -5795.0458984375 -296.0004272460938 -5797.19921875 -296.0004272460938 Z M -5782.900390625 -310.299560546875 L -5786.7998046875 -310.299560546875 C -5788.95361328125 -310.299560546875 -5790.69970703125 -312.0457763671875 -5790.69970703125 -314.1991577148438 L -5790.69970703125 -318.1006164550781 C -5790.69970703125 -320.2540283203125 -5788.95361328125 -322.000244140625 -5786.7998046875 -322.000244140625 L -5782.900390625 -322.000244140625 C -5780.74658203125 -322.000244140625 -5779.00048828125 -320.2540283203125 -5779.00048828125 -318.1006164550781 L -5779.00048828125 -314.1991577148438 C -5779.00048828125 -312.0457763671875 -5780.74658203125 -310.299560546875 -5782.900390625 -310.299560546875 Z M -5797.19921875 -310.299560546875 L -5801.09912109375 -310.299560546875 C -5803.25390625 -310.299560546875 -5805.00048828125 -312.0457763671875 -5805.00048828125 -314.1991577148438 L -5805.00048828125 -318.1006164550781 C -5805.00048828125 -320.2540283203125 -5803.25390625 -322.000244140625 -5801.09912109375 -322.000244140625 L -5797.19921875 -322.000244140625 C -5795.0458984375 -322.000244140625 -5793.2998046875 -320.2540283203125 -5793.2998046875 -318.1006164550781 L -5793.2998046875 -314.1991577148438 C -5793.2998046875 -312.0457763671875 -5795.0458984375 -310.299560546875 -5797.19921875 -310.299560546875 Z"/></g></svg>