<svg xmlns="http://www.w3.org/2000/svg" xmlns:xlink="http://www.w3.org/1999/xlink" width="130" height="130" viewBox="0 0 130 130"><defs><style>.a{fill:#fff;stroke:rgba(236,236,236,0.5);stroke-width:5px;}.b{fill:#8247e5;}.c{stroke:none;}.d{fill:none;}.e{filter:url(#a);}</style><filter id="a" x="0" y="0" width="130" height="130" filterUnits="userSpaceOnUse"><feOffset dy="5" input="SourceAlpha"/><feGaussianBlur stdDeviation="5" result="b"/><feFlood flood-color="#042837" flood-opacity="0.169"/><feComposite operator="in" in2="b"/><feComposite in="SourceGraphic"/></filter></defs><g transform="translate(-704 -77)"><g class="e" transform="matrix(1, 0, 0, 1, 704, 77)"><g class="a" transform="translate(15 10)"><circle class="c" cx="50" cy="50" r="50"/><circle class="d" cx="50" cy="50" r="47.5"/></g></g><path class="b" d="M60.535,28.876a4.407,4.407,0,0,0-4.265,0l-9.951,6.047-6.753,3.848-9.774,6.047a4.407,4.407,0,0,1-4.265,0l-7.641-4.765a4.494,4.494,0,0,1-2.133-3.848V27.043a4.552,4.552,0,0,1,2.133-3.848l7.641-4.582a4.408,4.408,0,0,1,4.265,0l7.641,4.765a4.494,4.494,0,0,1,2.133,3.848v6.047l6.753-4.032V23.011a4.552,4.552,0,0,0-2.133-3.848L29.969,10.55a4.406,4.406,0,0,0-4.265,0l-14.572,8.8A4.051,4.051,0,0,0,9,23.011V40.238a4.552,4.552,0,0,0,2.132,3.848L25.527,52.7a4.408,4.408,0,0,0,4.265,0l9.774-5.864L46.318,42.8l9.774-5.864a4.407,4.407,0,0,1,4.265,0L68,41.521a4.5,4.5,0,0,1,2.132,3.848v9.163A4.552,4.552,0,0,1,68,58.38l-7.464,4.582a4.408,4.408,0,0,1-4.265,0L48.628,58.38A4.494,4.494,0,0,1,46.5,54.532V48.668L39.743,52.7v6.047A4.552,4.552,0,0,0,41.876,62.6L56.27,71.208a4.407,4.407,0,0,0,4.265,0L74.929,62.6a4.494,4.494,0,0,0,2.132-3.848V41.337a4.552,4.552,0,0,0-2.132-3.848Z" transform="translate(725.97 96.121)"/></g></svg>