<svg xmlns="http://www.w3.org/2000/svg" width="36" height="36" viewBox="0 0 36 36"><defs><style>.a,.b{fill:none;}.a{opacity:0;}.c,.d{stroke:none;}.d{fill:#0d90ff;}</style></defs><rect class="a" width="36" height="36" rx="5"/><g class="b" transform="translate(10.234 8.293)"><path class="c" d="M0,16.09c0-2.641,3.577-3.3,7.766-3.3,4.214,0,7.766.684,7.766,3.325s-3.577,3.3-7.766,3.3C3.555,19.414,0,18.73,0,16.09ZM2.627,5.134a5.139,5.139,0,1,1,5.139,5.139A5.119,5.119,0,0,1,2.627,5.134Z"/><path class="d" d="M 7.765783786773682 18.41445922851563 C 10.0180139541626 18.41445922851563 11.74191379547119 18.21125984191895 12.88961410522461 17.81048965454102 C 14.34493350982666 17.30230903625488 14.5315637588501 16.6361198425293 14.5315637588501 16.11250877380371 C 14.5315637588501 15.58625984191895 14.34553337097168 14.91629981994629 12.89485359191895 14.40242004394531 C 11.74315357208252 13.99445915222168 10.01748371124268 13.78759956359863 7.765783786773682 13.78759956359863 C 5.514523983001709 13.78759956359863 3.790683746337891 13.99106979370117 2.642123699188232 14.39236927032471 C 1.186653733253479 14.90089988708496 1.000003814697266 15.56649971008301 1.000003814697266 16.08955001831055 C 1.000003814697266 16.61571884155273 1.186123728752136 17.28558921813965 2.637513875961304 17.79961967468262 C 3.789493799209595 18.20759963989258 5.514883995056152 18.41445922851563 7.765783786773682 18.41445922851563 M 7.765783786773682 9.273249626159668 C 8.87877368927002 9.273249626159668 9.920244216918945 8.844599723815918 10.69834423065186 8.066249847412109 C 11.47627353668213 7.288079738616943 11.90470409393311 6.24683952331543 11.90470409393311 5.134329795837402 C 11.90470409393311 4.023129463195801 11.476393699646 2.983129501342773 10.69867420196533 2.205889701843262 C 9.920563697814941 1.428259611129761 8.878973960876465 0.9999996423721313 7.765783786773682 0.9999996423721313 C 6.653383731842041 0.9999996423721313 5.612063884735107 1.42829966545105 4.833643913269043 2.205999612808228 C 4.05544376373291 2.983479499816895 3.626863718032837 4.023449420928955 3.626863718032837 5.134329795837402 C 3.626863718032837 6.246519565582275 4.055553913116455 7.287729740142822 4.83397388458252 8.066139221191406 C 5.612383842468262 8.844559669494629 6.653594017028809 9.273249626159668 7.765783786773682 9.273249626159668 M 7.765783786773682 19.41445922851563 C 3.554533720016479 19.41445922851563 3.786773731917492e-06 18.73019027709961 3.786773731917492e-06 16.08955001831055 C 3.786773731917492e-06 13.44890975952148 3.577493667602539 12.78759956359863 7.765783786773682 12.78759956359863 C 11.97933387756348 12.78759956359863 15.5315637588501 13.47186946868896 15.5315637588501 16.11250877380371 C 15.5315637588501 18.75544929504395 11.95407390594482 19.41445922851563 7.765783786773682 19.41445922851563 Z M 7.765783786773682 10.27324962615967 C 4.913893699645996 10.27324962615967 2.626863718032837 7.98621940612793 2.626863718032837 5.134329795837402 C 2.626863718032837 2.284729719161987 4.913893699645996 -3.857421972952579e-07 7.765783786773682 -3.857421972952579e-07 C 10.61997413635254 -3.857421972952579e-07 12.90470409393311 2.284729719161987 12.90470409393311 5.134329795837402 C 12.90470409393311 7.98621940612793 10.61997413635254 10.27324962615967 7.765783786773682 10.27324962615967 Z"/></g></svg>