<svg xmlns="http://www.w3.org/2000/svg" width="36" height="36" viewBox="0 0 36 36"><defs><style>.a,.b{fill:none;}.a{opacity:0;}.b{stroke:#0d90ff;}</style></defs><rect class="a" width="36" height="36" rx="5"/><path class="b" d="M8.049-18.154c0,.488-.226,1.352-1.082,1.336H3.525C2.436-16.844,2.45-17.984,2.45-18.79a7.2,7.2,0,0,1,2.577-5.838q2.577-2.147,7.38-2.147,3.786,0,5.615,1.416a4.656,4.656,0,0,1,1.829,3.9,6.5,6.5,0,0,1-.843,3.245,8.384,8.384,0,0,1-2.084,2.481q-1.241.986-2.481,1.813a25.727,25.727,0,0,0-2.2,1.622,2.771,2.771,0,0,0-1.082,1.527s-.311,1.338-1.052,1.727-2.2.215-3.465.167-.859-1.894-.859-1.894A5.8,5.8,0,0,1,6.967-13.43a6.726,6.726,0,0,1,1.956-1.686q1.066-.589,2.116-1.161a4.2,4.2,0,0,0,2.418-3.849q0-1.718-2.227-1.718a2.88,2.88,0,0,0-2.354,1A4.092,4.092,0,0,0,8.049-18.154ZM4.009-3.488a4.16,4.16,0,0,1,.907-2.974A3.758,3.758,0,0,1,7.731-7.4Q10.4-7.4,10.4-5.047A4.049,4.049,0,0,1,9.5-2.12,3.846,3.846,0,0,1,6.649-1.2Q4.009-1.2,4.009-3.488Z" transform="matrix(0.985, -0.174, 0.174, 0.985, 9.787, 33.71)"/></svg>