<svg xmlns="http://www.w3.org/2000/svg" width="36" height="36" viewBox="0 0 36 36"><defs><style>.a{fill:none;opacity:0;}.b{fill:#0d90ff;fill-rule:evenodd;}</style></defs><rect class="a" width="36" height="36" rx="5"/><path class="b" d="M10.925,18.662H16.75a6.916,6.916,0,0,0-.162,1.079h-5.5a6.913,6.913,0,0,0-.162-1.079Zm2.373,8.36a.559.559,0,0,0,.428.593h.222a.559.559,0,0,0,.428-.593.542.542,0,0,0-1.079,0ZM12.22,9.493a2.367,2.367,0,0,1,.161-.648,1.633,1.633,0,0,1,.809-.809,1.586,1.586,0,0,1,2.106.809,1.454,1.454,0,0,1,0,1.3,1.593,1.593,0,0,1-2.915,0,2.369,2.369,0,0,1-.161-.648Zm-1.079-.216a2.568,2.568,0,0,0,.787,2.126,2.712,2.712,0,0,0,4.607-1.694,2.567,2.567,0,0,0-.787-2.125,2.711,2.711,0,0,0-4.607,1.694Zm16.5,14.569V24a3.273,3.273,0,0,1-.395,1.494,3.994,3.994,0,0,1-1.888,1.779,3.316,3.316,0,0,1-1.439.341H16.211c-.528,0-.894-1.091.268-1.08h3.669c1.253,0,3.815.157,4.639-.215a2.64,2.64,0,0,0,1.685-3.034,2.851,2.851,0,0,0-4.144-1.745c-.3.184-.8.54-.885.895.518.121,1.272.67.973,1.24-.348.663-1.025-.047-1.2-.146a1.6,1.6,0,0,0-2.161.558c-.274.473-.129,1.368-.736,1.368a3.342,3.342,0,0,1-1.295-.269,2.876,2.876,0,0,1-1.3-1.286,7.676,7.676,0,0,1-.261-3.083H12.22v2.049a2.753,2.753,0,0,1-2.589,2.589c-.466,0-.695-.019-.765-.583A1.61,1.61,0,0,0,6.43,23.552c-.217.126-.423.4-.683.4a.55.55,0,0,1-.454-.885,2.222,2.222,0,0,1,.94-.625,2.7,2.7,0,0,0-3.338-1.072,3.11,3.11,0,0,0-.749.492,3,3,0,0,0-.953,1.474,2.379,2.379,0,0,0,.363,1.9A2.872,2.872,0,0,0,2.9,26.315a5.881,5.881,0,0,0,2.259.222l6.1,0c1.044-.007.781,1.081.214,1.081H3.644A3.824,3.824,0,0,1,.738,25.991,3.729,3.729,0,0,1,.03,23.678,3.945,3.945,0,0,1,6.015,20.66c1.272.761,1.116,1.475,1.562,1.567a3.1,3.1,0,0,1,1.507.7,2.7,2.7,0,0,1,.655.909c.062.14.1.3.162.432a1.583,1.583,0,0,0,.877-.579c.537-.595.364-2.079.364-2.873-.83,0-1.006.1-1.149-.9a9.761,9.761,0,0,1-.145-1.257H7.366a1.744,1.744,0,0,1-1.225-2.843L8,13.638c.775-.962,1.049-.857.928-1.667a20.089,20.089,0,0,1-.273-3.5,10.446,10.446,0,0,1,1.635-5.161,9.63,9.63,0,0,1,1.965-2.3C12.554.738,13.416,0,13.784,0c.483,0,1.739,1.061,2.09,1.416a10.706,10.706,0,0,1,2.6,4.2,11.452,11.452,0,0,1,.429,5.215c-.232,1.923-.375,1.4.171,2.113.376.49.862.968,1.248,1.448.211.262.4.467.623.725l.618.73a1.981,1.981,0,0,1,.369,1.2,1.7,1.7,0,0,1-1.618,1.618H17.829a10.276,10.276,0,0,1-.152,1.3c-.134.964-.352.853-1.142.853,0,1.552-.247,2.512.754,3.237a.894.894,0,0,0,.487.215,6.413,6.413,0,0,1,.408-.886,2.7,2.7,0,0,1,1.432-1.05c.575-.185.546.043.806-.435A3.757,3.757,0,0,1,21.7,20.64a4.111,4.111,0,0,1,2.337-.576,3.967,3.967,0,0,1,3.614,3.782Zm-9.655-6.263c.055-.656.476-3.188.485-3.614.2.232.394.45.606.689l1.241,1.455c.167.175.526.57.526.822,0,.63-.675.65-1.078.648-.593,0-1.187,0-1.78,0ZM6.826,16.936c0-.289.574-.9.8-1.145.062-.07.1-.091.158-.165L9.2,13.97c.006.259.082.608.118.907.1.815.306,1.966.368,2.707a13.209,13.209,0,0,1-2.5-.089.7.7,0,0,1-.358-.559ZM9.739,9.062a9.65,9.65,0,0,1,.771-3.76c.077-.2.378-.986.578-.986h5.5c.3,0,.9,1.854.96,2.06a9.816,9.816,0,0,1,.177,4.794l-.867,6.414H10.817c-.2-.872-1.079-7.947-1.079-8.522Zm4.1-7.875,1.174.93a4.462,4.462,0,0,1,.49.535c.156.194.355.378.493.585H11.68a6.756,6.756,0,0,1,.469-.555,4.062,4.062,0,0,1,.784-.78c.126-.112.142-.138.287-.252.211-.165.408-.322.617-.462Z" transform="translate(4.162 4.192)"/></svg>