<svg xmlns="http://www.w3.org/2000/svg" width="36" height="36" viewBox="0 0 36 36"><defs><style>.a,.b{fill:none;}.a{opacity:0;}.c,.d{stroke:none;}.d{fill:#0d90ff;}</style></defs><rect class="a" width="36" height="36" rx="5"/><g transform="translate(8.779 8.293)"><g class="b" transform="translate(0)"><path class="c" d="M9.9,19.414H8.548a2.006,2.006,0,0,1-2.062-1.991A1.849,1.849,0,0,0,4.66,15.658a1.537,1.537,0,0,0-.875.223,2.088,2.088,0,0,1-1.052.292,2.06,2.06,0,0,1-1.766-1.01L.284,14a1.944,1.944,0,0,1-.018-1.991,2.051,2.051,0,0,1,.792-.767,1.586,1.586,0,0,0,.625-.62,1.734,1.734,0,0,0,.184-1.328,1.778,1.778,0,0,0-.827-1.1A1.971,1.971,0,0,1,.094,6.982,1.991,1.991,0,0,1,.3,5.444L.968,4.3a2.064,2.064,0,0,1,2.8-.737,1.838,1.838,0,0,0,.871.218,1.9,1.9,0,0,0,1.618-.888,1.5,1.5,0,0,0,.23-.854,1.722,1.722,0,0,1,.278-1.029A2.13,2.13,0,0,1,8.518,0h1.4a2.093,2.093,0,0,1,1.768,1.008,1.743,1.743,0,0,1,.266,1.029,1.483,1.483,0,0,0,.23.854,1.9,1.9,0,0,0,1.621.888,1.868,1.868,0,0,0,.877-.218,2.051,2.051,0,0,1,2.788.737l.666,1.146A1.971,1.971,0,0,1,17.4,8.193a1.8,1.8,0,0,0-.828,1.1,1.718,1.718,0,0,0,.194,1.323,1.51,1.51,0,0,0,.615.62,2.258,2.258,0,0,1,.8.767A1.972,1.972,0,0,1,18.162,14l-.7,1.164a2.033,2.033,0,0,1-2.806.719,1.584,1.584,0,0,0-.875-.223,1.843,1.843,0,0,0-1.835,1.766A2,2,0,0,1,9.9,19.414ZM9.232,6.969a2.744,2.744,0,1,0,0,5.486,2.743,2.743,0,1,0,0-5.486Z"/><path class="d" d="M 9.89777660369873 18.41445922851563 C 10.49799728393555 18.41445922851563 10.95061683654785 17.98849868774414 10.95061683654785 17.42364883422852 L 10.95061683654785 17.40810012817383 L 10.951096534729 17.39257049560547 C 10.99799728393555 15.88463973999023 12.26940727233887 14.65785980224609 13.78528690338135 14.65785980224609 C 14.32325077056885 14.65785980224609 14.79538249969482 14.78362846374512 15.1887035369873 15.03165912628174 C 15.33170032501221 15.11842632293701 15.5315990447998 15.17220973968506 15.71178722381592 15.17220973968506 C 16.06398773193359 15.17220973968506 16.42238616943359 14.96467971801758 16.6036262512207 14.65579986572266 L 16.60566711425781 14.65232944488525 L 16.60772705078125 14.64888000488281 L 17.29254722595215 13.5029878616333 C 17.4742317199707 13.1621789932251 17.48918342590332 12.80347156524658 17.33269691467285 12.5379114151001 C 17.2592716217041 12.42634677886963 17.11434745788574 12.23704624176025 16.91726875305176 12.12724781036377 C 16.38911628723145 11.86172676086426 16.08872604370117 11.4364128112793 15.90870666503906 11.1389799118042 C 15.52778720855713 10.51163005828857 15.41801643371582 9.770489692687988 15.59961700439453 9.052000045776367 C 15.78164672851563 8.332069396972656 16.25260734558105 7.704429626464844 16.89173698425293 7.330029487609863 L 16.90082740783691 7.324709415435791 L 16.91002655029297 7.31956958770752 C 17.15103721618652 7.185129642486572 17.31497764587402 6.977779388427734 17.38410758972168 6.720039844512939 C 17.4539966583252 6.459359645843506 17.41565704345703 6.195389747619629 17.27323722839355 5.95665979385376 L 17.27029609680176 5.95173978805542 L 17.26741600036621 5.946789741516113 L 16.60284996032715 4.803272247314453 C 16.41501998901367 4.486052513122559 16.06840705871582 4.289139747619629 15.69754695892334 4.289139747619629 C 15.51605701446533 4.289139747619629 15.33544731140137 4.337609767913818 15.17526721954346 4.429299831390381 L 15.16256713867188 4.436569690704346 L 15.14966678619385 4.443459510803223 C 14.73873710632324 4.662969589233398 14.27242660522461 4.778999805450439 13.80113697052002 4.778999805450439 C 12.79019641876221 4.778999805450439 11.84214687347412 4.255359649658203 11.3269567489624 3.412429571151733 L 11.32349681854248 3.406779527664185 L 11.3201265335083 3.401089668273926 C 11.04571723937988 2.938459634780884 10.9220666885376 2.458259582519531 10.95259666442871 1.973839640617371 L 10.95310688018799 1.965779662132263 L 10.9537467956543 1.957739591598511 C 10.96681690216064 1.792749643325806 10.89318656921387 1.632119655609131 10.83081722259521 1.529229640960693 C 10.63145732879639 1.202789664268494 10.28098678588867 0.9999996423721313 9.916167259216309 0.9999996423721313 L 8.532655715942383 0.9999996423721313 C 8.163147926330566 1.013059020042419 7.805184364318848 1.219000458717346 7.618376731872559 1.526829600334167 L 7.609686851501465 1.541149616241455 L 7.600526809692383 1.555159568786621 C 7.51898717880249 1.679911375045776 7.476583957672119 1.834502696990967 7.484015941619873 1.979667782783508 C 7.512818813323975 2.456199645996094 7.390091419219971 2.932583093643188 7.119196891784668 3.395769596099854 L 7.114316940307617 3.404119729995728 L 7.10927677154541 3.412369728088379 C 6.594136714935303 4.255339622497559 5.647216796875 4.778999805450439 4.638026714324951 4.778999805450439 C 4.166446685791016 4.778999805450439 3.700936794281006 4.662239551544189 3.29181694984436 4.441349506378174 L 3.282676935195923 4.436419486999512 L 3.273636817932129 4.431289672851563 C 3.109646797180176 4.338289737701416 2.926276922225952 4.289139747619629 2.743346929550171 4.289139747619629 C 2.373385906219482 4.289139747619629 2.023545742034912 4.487586498260498 1.828669905662537 4.807478904724121 L 1.169586896896362 5.945489406585693 L 1.168096899986267 5.94806957244873 L 1.166586875915527 5.950629711151123 C 1.02532684803009 6.191219806671143 0.9882869124412537 6.457799434661865 1.059456944465637 6.721569538116455 C 1.129216909408569 6.980119705200195 1.291816830635071 7.18757963180542 1.529676914215088 7.321529388427734 L 1.537136912345886 7.325719833374023 L 1.544516921043396 7.330049514770508 C 2.188766956329346 7.707479476928711 2.646806955337524 8.31537914276123 2.834256887435913 9.04163932800293 C 3.019436836242676 9.758729934692383 2.915627002716064 10.50047969818115 2.541966915130615 11.13024997711182 L 2.533306837081909 11.14484977722168 L 2.524146795272827 11.15914916992188 C 2.320875883102417 11.47666549682617 2.024261713027954 11.87134838104248 1.524911999702454 12.12424755096436 C 1.34016227722168 12.22998142242432 1.198520541191101 12.3837366104126 1.143876910209656 12.484299659729 L 1.13180685043335 12.50650978088379 L 1.118636846542358 12.52807998657227 C 0.9502168893814087 12.80385971069336 0.9614468812942505 13.17428970336914 1.145676851272583 13.49097919464111 L 1.82893693447113 14.65345001220703 C 2.017876863479614 14.97342967987061 2.364526987075806 15.17220973968506 2.733626842498779 15.17220973968506 C 2.906030416488647 15.17220973968506 3.112268686294556 15.11731719970703 3.251178979873657 15.03496932983398 C 3.641196489334106 14.7812557220459 4.102405548095703 14.65785980224609 4.660146713256836 14.65785980224609 C 6.185396671295166 14.65785980224609 7.452806949615479 15.88892936706543 7.485406875610352 17.40210914611816 L 7.485636711120605 17.41287994384766 L 7.485636711120605 17.42364883422852 C 7.485636711120605 17.98849868774414 7.942196846008301 18.41445922851563 8.547626495361328 18.41445922851563 L 9.89777660369873 18.41445922851563 M 9.231897354125977 5.96899938583374 C 11.3557767868042 5.96899938583374 13.01947689056396 7.615559577941895 13.01947689056396 9.717559814453125 C 13.01947689056396 11.81311988830566 11.3557767868042 13.45464992523193 9.231897354125977 13.45464992523193 C 7.126936912536621 13.45464992523193 5.414426803588867 11.77819919586182 5.414426803588867 9.717559814453125 C 5.414426803588867 7.650599479675293 7.126936912536621 5.96899938583374 9.231897354125977 5.96899938583374 M 9.89777660369873 19.41445922851563 L 8.547626495361328 19.41445922851563 C 7.391356945037842 19.41445922851563 6.485636711120605 18.53998947143555 6.485636711120605 17.42364883422852 C 6.465016841888428 16.46650886535645 5.62904691696167 15.65785980224609 4.660146713256836 15.65785980224609 C 4.296277046203613 15.65785980224609 4.010087013244629 15.7307300567627 3.785266876220703 15.88058948516846 C 3.488796949386597 16.06321907043457 3.095686912536621 16.17220878601074 2.733626842498779 16.17220878601074 C 2.012406826019287 16.17220878601074 1.33579683303833 15.78506946563721 0.9678369164466858 15.16187953948975 L 0.2835668921470642 13.99769973754883 C -0.08783310651779175 13.35932922363281 -0.09487310796976089 12.5964994430542 0.2651968896389008 12.00688934326172 C 0.4256269037723541 11.71161937713623 0.7217869162559509 11.42486953735352 1.057366847991943 11.23994922637939 C 1.348216891288757 11.09816932678223 1.529446840286255 10.85818958282471 1.681956887245178 10.61996936798096 C 1.918746948242188 10.22089004516602 1.9841468334198 9.749119758605957 1.866016864776611 9.291669845581055 C 1.745566844940186 8.824979782104492 1.451876878738403 8.434749603271484 1.039026856422424 8.192879676818848 C 0.5688568949699402 7.92812967300415 0.2332068830728531 7.498099803924561 0.09397689253091812 6.982059478759766 C -0.04665311053395271 6.460869789123535 0.02802689000964165 5.914759635925293 0.304236888885498 5.444319725036621 L 0.9678369164466858 4.29850959777832 C 1.341716885566711 3.675899505615234 2.022026777267456 3.28913950920105 2.743346929550171 3.28913950920105 C 3.098846912384033 3.28913950920105 3.452796936035156 3.383289575576782 3.766916990280151 3.561419725418091 C 4.03054666519165 3.703759670257568 4.331787109375 3.77899956703186 4.638026714324951 3.77899956703186 C 5.301276683807373 3.77899956703186 5.921247005462646 3.438699722290039 6.25598669052124 2.890929698944092 C 6.425776958465576 2.600609540939331 6.50305700302124 2.313199520111084 6.485636711120605 2.036739587783813 C 6.465936660766602 1.677639603614807 6.564596652984619 1.312309622764587 6.763476848602295 1.008039593696594 C 7.129746913909912 0.4044696092605591 7.801976680755615 0.01818961463868618 8.517776489257813 -3.857421972952579e-07 L 9.916167259216309 -3.857421972952579e-07 C 10.62705707550049 -3.857421972952579e-07 11.30453681945801 0.3862496018409729 11.6842565536499 1.008039593696594 C 11.82462692260742 1.239599585533142 11.9847469329834 1.606049656867981 11.95061683654785 2.036739587783813 C 11.93295669555664 2.316929578781128 12.01021671295166 2.604339599609375 12.18020725250244 2.890929698944092 C 12.51499652862549 3.438699722290039 13.1360969543457 3.77899956703186 13.80113697052002 3.77899956703186 C 14.10864734649658 3.77899956703186 14.41202735900879 3.703759670257568 14.67848682403564 3.561419725418091 C 14.98964691162109 3.383309602737427 15.34206676483154 3.28913950920105 15.69754695892334 3.28913950920105 C 16.42202758789063 3.28913950920105 17.09971618652344 3.675899505615234 17.46611595153809 4.29850959777832 L 18.13201713562012 5.444319725036621 C 18.41204643249512 5.91370964050293 18.48948669433594 6.45872974395752 18.34999656677246 6.978999614715576 C 18.21120643615723 7.496439456939697 17.87284660339355 7.927539825439453 17.39719772338867 8.192879676818848 C 16.98770713806152 8.432759284973145 16.68588638305664 8.835259437561035 16.56910705566406 9.29712963104248 C 16.45371627807617 9.753659248352051 16.52272605895996 10.22346973419189 16.76347732543945 10.61996936798096 C 16.89930725097656 10.84438991546631 17.07861709594727 11.09354972839355 17.37885665893555 11.23994922637939 C 17.7659969329834 11.44762992858887 18.0283260345459 11.77162933349609 18.18023681640625 12.00688934326172 C 18.53410720825195 12.58636951446533 18.5272159576416 13.33059978485107 18.16186714172363 13.99769973754883 L 17.46611595153809 15.16187953948975 C 17.10598754882813 15.77562999725342 16.41737747192383 16.17220878601074 15.71178722381592 16.17220878601074 C 15.34431648254395 16.17220878601074 14.96102714538574 16.06591987609863 14.66014671325684 15.88058948516846 C 14.42490673065186 15.73069953918457 14.138747215271 15.65785980224609 13.78528690338135 15.65785980224609 C 12.80393695831299 15.65785980224609 11.98089694976807 16.44999885559082 11.95061683654785 17.42364883422852 C 11.95061683654785 18.53995895385742 11.04889678955078 19.41445922851563 9.89777660369873 19.41445922851563 Z M 9.231897354125977 6.96899938583374 C 7.678337097167969 6.96899938583374 6.414426803588867 8.20198917388916 6.414426803588867 9.717559814453125 C 6.414426803588867 11.2267894744873 7.678337097167969 12.45464992523193 9.231897354125977 12.45464992523193 C 10.79503726959229 12.45464992523193 12.01947689056396 11.25237941741943 12.01947689056396 9.717559814453125 C 12.01947689056396 8.17632007598877 10.79503726959229 6.96899938583374 9.231897354125977 6.96899938583374 Z"/></g></g></svg>