<svg xmlns="http://www.w3.org/2000/svg" width="36" height="36" viewBox="0 0 36 36"><defs><style>.a{fill:none;opacity:0;}.b{fill:#0d90ff;}</style></defs><rect class="a" width="36" height="36" rx="5"/><path class="b" d="M-6099.37-681.626a1.659,1.659,0,0,1-1.07-.475c-.833-.9-.251-1.72.133-2.368.859-1.441,2.777-4.5,3.4-5.739a6.713,6.713,0,0,0,.078-5.7,5.24,5.24,0,0,1-.819-2.513l.066-.925c-.357,0-.437-.066-.807-.066-1.017,0-.648-.622-1.2-2.87-.066-.251-.094-.41-.16-.648a.58.58,0,0,0-.317-.476,5.45,5.45,0,0,1-1.495-1.784c-.08-.2-1.15-3.187-.026-3.187a9.355,9.355,0,0,1,1.362.622l-.5-1.164c-.105-.277-.833-1.931.133-1.931.158,0,.4.2.528.279a4.221,4.221,0,0,0,2.38.463l-.012.012a10.388,10.388,0,0,0,3.491-.832c.594-.239,1.163-.649,1.454-.159a1.528,1.528,0,0,1,.119.556c.014.383.066.859.106,1.19.053.423.08.845.133,1.23.04.357.118.845.132,1.162.714-.819.833-.343,1.838.636.45.436.993.554,1.389,1.084a.967.967,0,0,1,.237.568,1.3,1.3,0,0,1,.913.146c.265.132.462.237.74.371a1.263,1.263,0,0,1,.648.515,1.224,1.224,0,0,1,.239.887c.965.648,1.667.582,1.667,2.539a2.609,2.609,0,0,1,1.216.7,5.467,5.467,0,0,1,.7,1.164,10.323,10.323,0,0,1,2.168-.251,27.107,27.107,0,0,1,3.465.423c.568.066,1.176.12,1.732.185a4.454,4.454,0,0,0,.477.012c.487,0,.938-.008.938.49a16.045,16.045,0,0,1-.622,2.156c-.423,1.322-.859,2.855-1.178,4.258-.08.343-.092.833-.184,1.176-.119.423-.437.384-.979.384.132.515,1.335.951-.609,2.167a13.278,13.278,0,0,1-3.12,1.337c-2.234.62-1.72.871-3.028-1.218l-1.786-2.922a3.562,3.562,0,0,0-.568.423,9.523,9.523,0,0,0-2.011,1.76c-.343.74-.489,1.256-.78,2-.343.847-.833,1.706-1.244,2.526-.435.873-.687,1.812-1.89,1.812Zm7.128-23.432c-1.15,1.535-1.824,1.031-3,2.8a2.69,2.69,0,0,0-.369.807c-.186.582-.913,1.071-.993,2.474a3.039,3.039,0,0,0,.026,1.031c.185,1.031,1.335,2.288,1.335,4.351,0,2.988-.568,3.622-1.983,5.99-.186.317-2.592,4.192-2.592,4.455,0,.239.106.49.371.49h7.722c.3,0,1.084-1.8,1.3-2.222a17.634,17.634,0,0,0,1.071-2.46c.49-1.256.464-1.374,1.4-2.115.343-.265.66-.542.991-.807a6.1,6.1,0,0,0,.927-.806l-.939-1.535c-.279-.463-.3.08-.821-.594l-.833-1.084c-.793-1.006-2.261-2.447-2.737-3.068-.277-.371-1.824-1.666-1.824-2,0-.411.04-.265.131-.556.211-.754-.131-1.164-.131-1.613h-.014c0-.291.7-.6,1.15-1.124,1.059-1.244.542-2.182.331-3.068A2.908,2.908,0,0,0-6092.241-705.058Zm5.964,11.623v.014c.371.7,1.626,2.605,2.1,3.4l1.045,1.666c.356.542.674,1.124,1.044,1.666,1.138-.265,4.021-1.192,4.509-1.918l-.7-1.032-3-2a17.736,17.736,0,0,0-4.443-2.287A1.769,1.769,0,0,1-6086.277-693.435Zm3.743-3.61c-.106.093-.133.093-.239.2l-1.3,1.23a3.868,3.868,0,0,0-.793.885c.171.093.343.119.542.211l1.4.7c.317.158.608.343.9.516s.582.343.887.542c.594.383,1.163.726,1.718,1.123,1.561,1.112,1.284,1.046,2.591,1.046a3.26,3.26,0,0,1,.146-.9c.067-.317.106-.5.186-.806.186-.715,1.335-4.457,1.335-4.722a16.826,16.826,0,0,1-2.657-.251,13.272,13.272,0,0,0-3.094-.3C-6082.614-697.573-6082.231-697.3-6082.534-697.045Zm-3.135-1.718a6.472,6.472,0,0,0-.476.582,7.325,7.325,0,0,0-1.6,3.16c-.026.3.4.767.608.913h.014c.515-.119,2.208-2.117,2.737-2.645a3.779,3.779,0,0,1,.462-.463,1.69,1.69,0,0,0,.437-.423,2.27,2.27,0,0,0-1.667-1.732Zm-3.61,1.15c-.146.2-.3.291-.437.489a4.423,4.423,0,0,0,.57.662c.2.2.29.49.594.568.08-.991,1.547-2.829,2.156-3.6.277-.331.753-.5.753-1.1,0-.833-.384-.859-.992-1.176Zm-.184-5a21.346,21.346,0,0,0-1.376,2.46,8.248,8.248,0,0,0-.423,1.469l.793.754h.014c.728-.384,1.9-2.777,2.42-3.57.674-1.058,1.27-1.323.251-1.826a2.77,2.77,0,0,0-.807-.349C-6088.825-703.674-6088.948-703.386-6089.463-702.612Zm-.94-1.375a3.7,3.7,0,0,1-1.665,2.725,8.673,8.673,0,0,1,.118,1.044c.067-.08.014,0,.093-.146l1.573-2.882c.7-1.058.873-1.138-.185-1.852Zm-7.788,3.584a4.1,4.1,0,0,1,.859.066,5.181,5.181,0,0,1,.3-.74c-.424-.225-.992-.714-1.415-.992C-6098.443-701.54-6098.191-700.958-6098.191-700.4Zm-2.209-4.774a20.13,20.13,0,0,0,3.756,3.108l-2.737-4.178-.807-.371a4.987,4.987,0,0,0-.779-.331A5.01,5.01,0,0,0-6100.4-705.177Zm.6-4.112c.568,1.084.62,1.322,1.335,2.5.171.291.3.516.462.78.225.371,1.852,2.9,2.036,3.028a7.5,7.5,0,0,1,.57-.726,15.327,15.327,0,0,1,1.877-1.4.766.766,0,0,0,.371-.871c-.133-.793-.464-3.518-.464-4.046a8.789,8.789,0,0,0-.991.357,9.558,9.558,0,0,1-4.363.542c-.253-.04-.57-.146-.821-.173Zm10.164,18.056c-.1-.084-.074-.095-.137-.211a3.65,3.65,0,0,0-1.926-1.516c-.348-.115-.811-.136-.811-.568a.437.437,0,0,1,.4-.378,2.856,2.856,0,0,1,.6.168,4.522,4.522,0,0,1,1.936,1.21c.887.879.626,1.418.249,1.418A.49.49,0,0,1-6089.641-691.234Z" transform="translate(6106 714.472)"/></svg>