<svg xmlns="http://www.w3.org/2000/svg" width="36" height="36" viewBox="0 0 36 36"><defs><style>.a,.b,.c,.f{fill:none;}.a{opacity:0;}.c{stroke:#fff;}.d,.e{stroke:none;}.e{fill:#fff;}</style></defs><rect class="a" width="36" height="36" rx="5"/><g transform="translate(-5805 -457)"><g class="b" transform="translate(5813 466)"><path class="d" d="M16,18H4a4,4,0,0,1-4-4V4A4,4,0,0,1,4,0H16a4,4,0,0,1,4,4V6H15a3,3,0,1,0,0,6h5v2A4,4,0,0,1,16,18Z"/><path class="e" d="M 16.00020027160645 17 C 17.65419006347656 17 18.99979972839355 15.65439033508301 18.99979972839355 14.00039958953857 L 18.99979972839355 12.99969959259033 L 15.00029945373535 12.99969959259033 C 12.79436016082764 12.99969959259033 10.99969959259033 11.20543956756592 10.99969959259033 9 C 10.99969959259033 6.794559955596924 12.79436016082764 5.00029993057251 15.00029945373535 5.00029993057251 L 18.99979972839355 5.00029993057251 L 18.99979972839355 3.999599933624268 C 18.99979972839355 2.345609903335571 17.65419006347656 1 16.00020027160645 1 L 3.999599933624268 1 C 2.345609903335571 1 0.9999998807907104 2.345609903335571 0.9999998807907104 3.999599933624268 L 0.9999998807907104 14.00039958953857 C 0.9999998807907104 15.65439033508301 2.345609903335571 17 3.999599933624268 17 L 16.00020027160645 17 M 16.00020027160645 18 L 3.999599933624268 18 C 1.794209837913513 18 -1.358032193365943e-07 16.20578956604004 -1.358032193365943e-07 14.00039958953857 L -1.358032193365943e-07 3.999599933624268 C -1.358032193365943e-07 1.794209957122803 1.794209837913513 0 3.999599933624268 0 L 16.00020027160645 0 C 18.20558929443359 0 19.99979972839355 1.794209957122803 19.99979972839355 3.999599933624268 L 19.99979972839355 6.00029993057251 L 15.00029945373535 6.00029993057251 C 13.34575939178467 6.00029993057251 11.99969959259033 7.345960140228271 11.99969959259033 9 C 11.99969959259033 10.65404033660889 13.34575939178467 11.99969959259033 15.00029945373535 11.99969959259033 L 19.99979972839355 11.99969959259033 L 19.99979972839355 14.00039958953857 C 19.99979972839355 16.20578956604004 18.20558929443359 18 16.00020027160645 18 Z"/></g><g class="c" transform="translate(5815 469)"><rect class="d" width="9" height="4" rx="2"/><rect class="f" x="0.5" y="0.5" width="8" height="3" rx="1.5"/></g><g class="c" transform="translate(5826 473)"><path class="d" d="M2,0H5.667A1.333,1.333,0,0,1,7,1.333V2.667A1.333,1.333,0,0,1,5.667,4H2A2,2,0,0,1,0,2V2A2,2,0,0,1,2,0Z"/><path class="f" d="M2,.5H5.6a.9.9,0,0,1,.9.9V2.6a.9.9,0,0,1-.9.9H2A1.5,1.5,0,0,1,.5,2V2A1.5,1.5,0,0,1,2,.5Z"/></g><g class="c" transform="translate(5826 473)"><rect class="d" width="4" height="4" rx="2"/><rect class="f" x="0.5" y="0.5" width="3" height="3" rx="1.5"/></g></g></svg>